<?xml version='1.0' encoding='UTF-8' standalone='no'?>
<!-- Created with Fritzing (http://www.fritzing.org/) -->
<svg xmlns:svg='http://www.w3.org/2000/svg' xmlns='http://www.w3.org/2000/svg' version='1.2' baseProfile='tiny' x='0in' y='0in' width='1.9814in' height='1.77081in' viewBox='0 0 142.661 127.498' >
<g partID='57650'><g transform='translate(51.3518,53.1832)' ><g  id="breadboardbreadboard">
 <g  id="background">
  <rect  fill="#d9d9d9" x="49.4183" height="24.7293" stroke-width="0.937267" y="8.64195" id="rect17223" width="6.79547"/>
 </g>
 <rect  fill="#d9d9d9" x="-6.39488e-17" height="24.7293" stroke-width="0.937267" y="8.63767" id="rect17221" width="6.79547"/>
 <rect  fill="#d9d9d9" x="6.79547" height="41.7232" stroke-width="0.937567" y="1.27898e-16" id="rect6" width="43.128"/>
 <g  id="sockets">
  <g transform="matrix(13.0142, 0, 0, 13.021, 3.84735, -72.8426)">
   <g  id="pin1A">
    <path  fill="#bfbfbf" d="m0.613872,8.2944c0,-0.095184,0.077184,-0.172368,0.172368,-0.172368,0.095184,0,0.172368,0.077112,0.172368,0.172368" id="path29"/>
    <path  fill="#e6e6e6" d="m0.958536,8.2944c0,0.095184,-0.077184,0.172368,-0.172368,0.172368,-0.095184,0,-0.172368,-0.077112,-0.172368,-0.172368" id="path31"/>
    <circle  fill="#383838" cx="0.78624" cy="8.2944" id="circle33" r="0.086184"/>
   </g>
  </g>
  <g transform="matrix(13.0142, 0, 0, 13.021, 3.84642, -73.2916)">
   <g  id="pin1B">
    <path  fill="#bfbfbf" d="m0.613872,7.776c0,-0.095184,0.077184,-0.17244,0.172368,-0.17244,0.095184,0,0.172368,0.077184,0.172368,0.17244" id="path36"/>
    <path  fill="#e6e6e6" d="m0.958536,7.776c0,0.095112,-0.077184,0.172296,-0.172368,0.172296,-0.095184,0,-0.172296,-0.077112,-0.172296,-0.172296" id="path38"/>
    <circle  fill="#383838" cx="0.78624" cy="7.776" id="circle40" r="0.086184"/>
   </g>
  </g>
  <g transform="matrix(13.0142, 0, 0, 13.021, 3.84735, -73.7424)">
   <g  id="pin1C">
    <path  fill="#bfbfbf" d="m0.613872,7.25753c0,-0.095112,0.077184,-0.172296,0.172368,-0.172296,0.095184,0,0.172368,0.077112,0.172368,0.172296" id="path43"/>
    <path  fill="#e6e6e6" d="m0.958536,7.25753c0,0.095184,-0.077184,0.17244,-0.172368,0.17244,-0.095184,0,-0.172368,-0.077184,-0.172368,-0.17244l0,0" id="path45"/>
    <circle  fill="#383838" cx="0.78624" cy="7.2576" id="circle47" r="0.086184"/>
   </g>
  </g>
  <g transform="matrix(13.0142, 0, 0, 13.021, 3.84642, -74.1923)">
   <g  id="pin1D">
    <path  fill="#bfbfbf" d="m0.613872,6.7392c0,-0.095184,0.077184,-0.17244,0.172368,-0.17244,0.095184,0,0.172368,0.077184,0.172368,0.17244" id="path50"/>
    <path  fill="#e6e6e6" d="m0.958536,6.7392c0,0.095184,-0.077184,0.172368,-0.172368,0.172368,-0.095184,0,-0.172296,-0.077184,-0.172296,-0.172368l0,0" id="path52"/>
    <circle  fill="#383838" cx="0.78624" cy="6.7392" id="circle54" r="0.086184"/>
   </g>
  </g>
  <g transform="matrix(13.0142, 0, 0, 13.021, 3.84642, -74.6422)">
   <g  id="pin1E">
    <path  fill="#bfbfbf" d="m0.613872,6.2208c0,-0.095112,0.077184,-0.172368,0.172368,-0.172368,0.095184,0,0.172368,0.077184,0.172368,0.172368" id="path57"/>
    <path  fill="#e6e6e6" d="m0.958536,6.2208c0,0.095112,-0.077184,0.172368,-0.172368,0.172368,-0.095184,0,-0.172296,-0.077256,-0.172296,-0.172368l0,0" id="path59"/>
    <circle  fill="#383838" cx="0.78624" cy="6.2208" id="circle61" r="0.086112"/>
   </g>
  </g>
  <g transform="matrix(13.0142, 0, 0, 13.021, 4.29986, -72.8435)">
   <g  id="pin2A">
    <path  fill="#bfbfbf" d="m1.13234,8.2944c0,-0.095184,0.077112,-0.172368,0.172368,-0.172368,0.095184,0,0.172368,0.077112,0.172368,0.172368" id="path99"/>
    <path  fill="#e6e6e6" d="m1.47701,8.2944c0,0.095184,-0.07704,0.17244,-0.172296,0.17244,-0.095184,0.000144,-0.172368,-0.07704,-0.17244,-0.172224,0,-7.2e-05,0,-0.000144,0,-0.000216" id="path101"/>
    <circle  fill="#383838" cx="1.30464" cy="8.2944" id="circle103" r="0.086184"/>
   </g>
  </g>
  <g transform="matrix(13.0142, 0, 0, 13.021, 4.29986, -73.2935)">
   <g  id="pin2B">
    <path  fill="#bfbfbf" d="m1.13234,7.776c0,-0.095184,0.077112,-0.17244,0.172368,-0.17244,0.095184,0,0.172368,0.077184,0.172368,0.17244" id="path106"/>
    <path  fill="#e6e6e6" d="m1.47701,7.776c0,0.095112,-0.07704,0.172368,-0.172296,0.17244,-0.095184,0,-0.172368,-0.07704,-0.17244,-0.172296,0,-7.2e-05,0,-0.000144,0,-0.000144" id="path108"/>
    <circle  fill="#383838" cx="1.30464" cy="7.776" id="circle110" r="0.086184"/>
   </g>
  </g>
  <g transform="matrix(13.0142, 0, 0, 13.021, 4.29986, -73.7434)">
   <g  id="pin2C">
    <path  fill="#bfbfbf" d="m1.13234,7.25753c0,-0.095112,0.077112,-0.172296,0.172368,-0.172296,0.095184,0,0.172368,0.077112,0.172368,0.172296" id="path113"/>
    <path  fill="#e6e6e6" d="m1.47701,7.25753c0,0.095184,-0.07704,0.17244,-0.172296,0.172512,-0.095184,7.2e-05,-0.172368,-0.07704,-0.17244,-0.172224,0,-0.000144,0,-0.000144,0,-0.000288" id="path115"/>
    <circle  fill="#383838" cx="1.30464" cy="7.2576" id="circle117" r="0.086184"/>
   </g>
  </g>
  <g transform="matrix(13.0142, 0, 0, 13.021, 4.29986, -74.1933)">
   <g  id="pin2D">
    <path  fill="#bfbfbf" d="m1.13234,6.7392c0,-0.095184,0.077112,-0.17244,0.172368,-0.17244,0.095184,0,0.172368,0.077184,0.172368,0.17244" id="path120"/>
    <path  fill="#e6e6e6" d="m1.47701,6.7392c0,0.095184,-0.07704,0.17244,-0.172296,0.17244,-0.095184,7.2e-05,-0.172368,-0.07704,-0.17244,-0.172296L1.30457,6.7392" id="path122"/>
    <circle  fill="#383838" cx="1.30464" cy="6.7392" id="circle124" r="0.086184"/>
   </g>
  </g>
  <g transform="matrix(13.0142, 0, 0, 13.021, 4.29986, -74.6441)">
   <g  id="pin2E">
    <path  fill="#bfbfbf" d="m1.13234,6.2208c0,-0.095112,0.077112,-0.172368,0.172368,-0.172368,0.095184,0,0.172368,0.077184,0.172368,0.172368" id="path127"/>
    <path  fill="#e6e6e6" d="m1.47701,6.2208c0,0.095112,-0.07704,0.172368,-0.172296,0.172512,-0.095184,0,-0.172368,-0.07704,-0.17244,-0.172296,0,-7.2e-05,0,-0.000144,0,-0.000216" id="path129"/>
    <circle  fill="#383838" cx="1.30464" cy="6.2208" id="circle131" r="0.086112"/>
   </g>
  </g>
  <g transform="matrix(13.0142, 0, 0, 13.021, 4.75423, -72.8426)">
   <g  id="pin3A">
    <path  fill="#bfbfbf" d="m1.65067,8.2944c0,-0.095184,0.077184,-0.172368,0.172368,-0.172368,0.095184,0,0.172368,0.077112,0.172368,0.172368" id="path169"/>
    <path  fill="#e6e6e6" d="m1.99534,8.2944c0,0.095184,-0.077184,0.172368,-0.172368,0.172368,-0.095184,0,-0.172368,-0.077112,-0.172368,-0.172368l0,0" id="path171"/>
    <circle  fill="#383838" cx="1.82304" cy="8.2944" id="circle173" r="0.086184"/>
   </g>
  </g>
  <g transform="matrix(13.0142, 0, 0, 13.021, 4.75423, -73.2916)">
   <g  id="pin3B">
    <path  fill="#bfbfbf" d="m1.65067,7.776c0,-0.095184,0.077184,-0.17244,0.172368,-0.17244,0.095184,0,0.172368,0.077184,0.172368,0.17244" id="path176"/>
    <path  fill="#e6e6e6" d="m1.99534,7.776c0,0.095112,-0.077184,0.172296,-0.172368,0.172296,-0.095184,0,-0.172368,-0.077112,-0.172368,-0.172296" id="path178"/>
    <circle  fill="#383838" cx="1.82304" cy="7.776" id="circle180" r="0.086184"/>
   </g>
  </g>
  <g transform="matrix(13.0142, 0, 0, 13.021, 4.75423, -73.7424)">
   <g  id="pin3C">
    <path  fill="#bfbfbf" d="m1.65067,7.25753c0,-0.095112,0.077184,-0.172296,0.172368,-0.172296,0.095184,0,0.172368,0.077112,0.172368,0.172296" id="path183"/>
    <path  fill="#e6e6e6" d="m1.99534,7.25753c0,0.095184,-0.077184,0.17244,-0.172368,0.17244,-0.095184,0,-0.172368,-0.077184,-0.172368,-0.17244l0,0" id="path185"/>
    <circle  fill="#383838" cx="1.82304" cy="7.2576" id="circle187" r="0.086184"/>
   </g>
  </g>
  <g transform="matrix(13.0142, 0, 0, 13.021, 4.75423, -74.1923)">
   <g  id="pin3D">
    <path  fill="#bfbfbf" d="m1.65067,6.7392c0,-0.095184,0.077184,-0.17244,0.172368,-0.17244,0.095184,0,0.172368,0.077184,0.172368,0.17244" id="path190"/>
    <path  fill="#e6e6e6" d="m1.99534,6.7392c0,0.095184,-0.077184,0.172368,-0.172368,0.172368,-0.095184,0,-0.172368,-0.077112,-0.172368,-0.172368l0,0" id="path192"/>
    <circle  fill="#383838" cx="1.82304" cy="6.7392" id="circle194" r="0.086184"/>
   </g>
  </g>
  <g transform="matrix(13.0142, 0, 0, 13.021, 4.75423, -74.6422)">
   <g  id="pin3E">
    <path  fill="#bfbfbf" d="m1.65067,6.2208c0,-0.095112,0.077184,-0.172368,0.172368,-0.172368,0.095184,0,0.172368,0.077184,0.172368,0.172368" id="path197"/>
    <path  fill="#e6e6e6" d="m1.99534,6.2208c0,0.095112,-0.077184,0.172368,-0.172368,0.172368,-0.095184,0,-0.172368,-0.077184,-0.172368,-0.172368" id="path199"/>
    <circle  fill="#383838" cx="1.82304" cy="6.2208" id="circle201" r="0.086112"/>
   </g>
  </g>
  <g transform="matrix(13.0142, 0, 0, 13.021, 5.20674, -72.8426)">
   <g  id="pin4A">
    <path  fill="#bfbfbf" d="m2.16907,8.2944c0,-0.095184,0.077112,-0.172368,0.172368,-0.172368,0.095184,0,0.172368,0.077112,0.172368,0.172368" id="path239"/>
    <path  fill="#e6e6e6" d="m2.51381,8.2944c0,0.095184,-0.077184,0.172368,-0.172368,0.172368,-0.095184,0,-0.172368,-0.077112,-0.172368,-0.172368l0,0" id="path241"/>
    <circle  fill="#383838" cx="2.34144" cy="8.2944" id="circle243" r="0.086184"/>
   </g>
  </g>
  <g transform="matrix(13.0142, 0, 0, 13.021, 5.20674, -73.2916)">
   <g  id="pin4B">
    <path  fill="#bfbfbf" d="m2.16907,7.776c0,-0.095184,0.077112,-0.17244,0.172368,-0.17244,0.095184,0,0.172368,0.077184,0.172368,0.17244" id="path246"/>
    <path  fill="#e6e6e6" d="m2.51381,7.776c0,0.095112,-0.077184,0.172296,-0.172368,0.172296,-0.095184,0,-0.172368,-0.077112,-0.172368,-0.172296" id="path248"/>
    <circle  fill="#383838" cx="2.34144" cy="7.776" id="circle250" r="0.086184"/>
   </g>
  </g>
  <g transform="matrix(13.0142, 0, 0, 13.021, 5.20674, -73.7424)">
   <g  id="pin4C">
    <path  fill="#bfbfbf" d="m2.16907,7.25753c0,-0.095112,0.077112,-0.172296,0.172368,-0.172296,0.095184,0,0.172368,0.077112,0.172368,0.172296" id="path253"/>
    <path  fill="#e6e6e6" d="m2.51381,7.25753c0,0.095184,-0.077184,0.17244,-0.172368,0.17244,-0.095184,0,-0.172368,-0.077184,-0.172368,-0.17244l0,0" id="path255"/>
    <circle  fill="#383838" cx="2.34144" cy="7.2576" id="circle257" r="0.086184"/>
   </g>
  </g>
  <g transform="matrix(13.0142, 0, 0, 13.021, 5.20674, -74.1923)">
   <g  id="pin4D">
    <path  fill="#bfbfbf" d="m2.16907,6.7392c0,-0.095184,0.077112,-0.17244,0.172368,-0.17244,0.095184,0,0.172368,0.077184,0.172368,0.17244" id="path260"/>
    <path  fill="#e6e6e6" d="m2.51381,6.7392c0,0.095184,-0.077184,0.172368,-0.172368,0.172368,-0.095184,0,-0.172368,-0.077112,-0.172368,-0.172368l0,0" id="path262"/>
    <circle  fill="#383838" cx="2.34144" cy="6.7392" id="circle264" r="0.086184"/>
   </g>
  </g>
  <g transform="matrix(13.0142, 0, 0, 13.021, 5.20674, -74.6422)">
   <g  id="pin4E">
    <path  fill="#bfbfbf" d="m2.16907,6.2208c0,-0.095112,0.077112,-0.172368,0.172368,-0.172368,0.095184,0,0.172368,0.077184,0.172368,0.172368" id="path267"/>
    <path  fill="#e6e6e6" d="m2.51381,6.2208c0,0.095112,-0.077184,0.172368,-0.172368,0.172368,-0.095184,0,-0.172368,-0.077184,-0.172368,-0.172368" id="path269"/>
    <circle  fill="#383838" cx="2.34144" cy="6.2208" id="circle271" r="0.086112"/>
   </g>
  </g>
  <g transform="matrix(13.0142, 0, 0, 13.021, 5.66112, -72.8426)">
   <g  id="pin5A">
    <path  fill="#bfbfbf" d="m2.68747,8.2944c0,-0.095184,0.077184,-0.172368,0.172368,-0.172368,0.095184,0,0.172368,0.077112,0.172368,0.172368" id="path309"/>
    <path  fill="#e6e6e6" d="m3.03214,8.2944c0,0.095184,-0.077112,0.172368,-0.172368,0.172368,-0.095184,0,-0.172368,-0.077112,-0.172368,-0.172368l0,0" id="path311"/>
    <circle  fill="#383838" cx="2.85984" cy="8.2944" id="circle313" r="0.086184"/>
   </g>
  </g>
  <g transform="matrix(13.0142, 0, 0, 13.021, 5.66112, -73.2916)">
   <g  id="pin5B">
    <path  fill="#bfbfbf" d="m2.68747,7.776c0,-0.095184,0.077184,-0.17244,0.172368,-0.17244,0.095184,0,0.172368,0.077184,0.172368,0.17244" id="path316"/>
    <path  fill="#e6e6e6" d="m3.03214,7.776c0,0.095112,-0.077112,0.172296,-0.172368,0.172296,-0.095184,0,-0.172368,-0.077112,-0.172368,-0.172296" id="path318"/>
    <circle  fill="#383838" cx="2.85984" cy="7.776" id="circle320" r="0.086184"/>
   </g>
  </g>
  <g transform="matrix(13.0142, 0, 0, 13.021, 5.66112, -73.7424)">
   <g  id="pin5C">
    <path  fill="#bfbfbf" d="m2.68747,7.25753c0,-0.095112,0.077184,-0.172296,0.172368,-0.172296,0.095184,0,0.172368,0.077112,0.172368,0.172296" id="path323"/>
    <path  fill="#e6e6e6" d="m3.03214,7.25753c0,0.095184,-0.077112,0.17244,-0.172368,0.17244,-0.095184,0,-0.172368,-0.077184,-0.172368,-0.17244l0,0" id="path325"/>
    <circle  fill="#383838" cx="2.85984" cy="7.2576" id="circle327" r="0.086184"/>
   </g>
  </g>
  <g transform="matrix(13.0142, 0, 0, 13.021, 5.66112, -74.1923)">
   <g  id="pin5D">
    <path  fill="#bfbfbf" d="m2.68747,6.7392c0,-0.095184,0.077184,-0.17244,0.172368,-0.17244,0.095184,0,0.172368,0.077184,0.172368,0.17244" id="path330"/>
    <path  fill="#e6e6e6" d="m3.03214,6.7392c0,0.095184,-0.077112,0.172368,-0.172368,0.172368,-0.095184,0,-0.172368,-0.077112,-0.172368,-0.172368l0,0" id="path332"/>
    <circle  fill="#383838" cx="2.85984" cy="6.7392" id="circle334" r="0.086184"/>
   </g>
  </g>
  <g transform="matrix(13.0142, 0, 0, 13.021, 5.66112, -74.6422)">
   <g  id="pin5E">
    <path  fill="#bfbfbf" d="m2.68747,6.2208c0,-0.095112,0.077184,-0.172368,0.172368,-0.172368,0.095184,0,0.172368,0.077184,0.172368,0.172368" id="path337"/>
    <path  fill="#e6e6e6" d="m3.03214,6.2208c0,0.095112,-0.077112,0.172368,-0.172368,0.172368,-0.095184,0,-0.172368,-0.077184,-0.172368,-0.172368" id="path339"/>
    <circle  fill="#383838" cx="2.85984" cy="6.2208" id="circle341" r="0.086112"/>
   </g>
  </g>
 </g>
</g>
</g></g><path stroke='#8c8c8c' stroke-width='2.0952' stroke-linecap='round' stroke-linejoin='round' fill='none' d='M87.007,46.7425L72.6311,59.541' />
<path stroke='#8c8c8c' stroke-width='2.0952' stroke-linecap='round' stroke-linejoin='round' fill='none' d='M113.717,46.7425L94.2311,66.7415' />
<g partID='57680'><g transform='translate(84.9118,43.1101)' ><g xmlns="http://www.w3.org/2000/svg" id="breadboard">
 <rect xmlns="http://www.w3.org/2000/svg" fill="none" x="0.36" height="0.72" y="2.5848" id="connector0pin" width="0.72"/>
 <rect xmlns="http://www.w3.org/2000/svg" fill="none" x="29.8202" height="0.72" y="2.5848" id="connector1pin" width="0.72"/>
 <line xmlns="http://www.w3.org/2000/svg" fill="none" x1="1.0476" stroke-width="2.0952" y2="3.6324" x2="2.0952" stroke="#8C8C8C" stroke-linecap="round" id="connector0leg" y1="3.6324"/>
 <line xmlns="http://www.w3.org/2000/svg" fill="none" x1="29.8526" stroke-width="2.0952" y2="3.6324" x2="28.805" stroke="#8C8C8C" stroke-linecap="round" id="connector1leg" y1="3.6324"/>
 <path xmlns="http://www.w3.org/2000/svg" fill="none" d="M1.0476,3.6324l28.3666,0" stroke-width="2.0952" stroke="#8C8C8C"/>
 <path xmlns="http://www.w3.org/2000/svg" fill="#D9B477" d="M10.2478,0.49536c-0.36,-0.1656,-0.9792,-0.2952,-1.3752,-0.2952l-1.9872,0c-0.396,0,-0.72,0.324,-0.72,0.72l0,5.35608c0,0.39672,0.324,0.72,0.72,0.72l1.9872,0c0.396,0,1.0152,-0.13608,1.3752,-0.2952l0.072,-0.03528c0.36,-0.1656,0.9792,-0.2952,1.3752,-0.2952l7.1856,0c0.39672,0,1.01448,0.13608,1.37448,0.2952l0.07272,0.03528c0.36,0.1656,0.97776,0.2952,1.3752,0.2952l1.9872,0c0.39744,0,0.72,-0.32328,0.72,-0.72L24.4102,0.92016c0,-0.396,-0.32256,-0.72,-0.72,-0.72l-1.9872,0c-0.39744,0,-1.0152,0.1368,-1.3752,0.2952l-0.07272,0.036c-0.36,0.1656,-0.97776,0.2952,-1.37448,0.2952l-7.1856,0c-0.396,0,-1.0152,-0.1368,-1.3752,-0.2952L10.2478,0.49536z" id="body"/>
 <rect xmlns="http://www.w3.org/2000/svg" fill="#ad9f4e" x="22.019" height="6.79536" y="0.19368" id="gold_band" width="0.70272"/>
 <rect xmlns="http://www.w3.org/2000/svg" fill="#ffd500" x="16.1726" height="5.5368" y="0.82656" id="band_rd_multiplier" width="1.8504"/>
 <rect xmlns="http://www.w3.org/2000/svg" fill="#000000" x="12.4726" height="5.5368" y="0.82656" id="band_2_nd" width="1.8504"/>
 <path xmlns="http://www.w3.org/2000/svg" fill="#8a3d06" d="M10.6286,0.63936c-0.1152,-0.036,-0.2232,-0.072,-0.3096,-0.1152l-0.072,-0.036c-0.36,-0.16488,-0.9792,-0.2952,-1.3752,-0.2952l-0.0864,0l0,6.79608l0.0864,0c0.396,0,1.0152,-0.13608,1.3752,-0.2952l0.072,-0.03528c0.0864,-0.04464,0.1944,-0.07992,0.3096,-0.1152L10.6286,0.63936z" id="band_1_st"/>
 <path xmlns="http://www.w3.org/2000/svg" d="M23.711,4.0896L23.711,4.0896c0,0.37944,-0.13032,0.69912,-0.2952,0.69912l-1.9224,0c-0.38016,0,-0.97776,-0.05616,-1.33272,-0.1224L20.088,4.65048c-0.34488,-0.0648,-0.94896,-0.1224,-1.33344,-0.1224L11.808,4.52808c-0.3816,0,-0.9792,0.0576,-1.332,0.1224l-0.072,0.01512c-0.3456,0.06552,-0.9432,0.1224,-1.332,0.1224l-0.3168,0l-1.0008,0l-0.3096,0c-0.3816,0,-0.6984,0.29376,-0.6984,0.64512l0,0.24696L6.7464,5.8392l0,0.1728c0,0.36,0.3168,0.64512,0.6984,0.64512l1.62,0c0.3816,0,0.9792,-0.1224,1.332,-0.26712l0.072,-0.02808c0.3456,-0.14112,0.9504,-0.26496,1.332,-0.26496l6.94656,0c0.37944,0,0.97704,0.12384,1.33416,0.26568l0.07416,0.02808c0.34488,0.14472,0.94464,0.26712,1.33344,0.26712l2.2248,0c0.38088,0,0.69912,-0.2952,0.69912,-0.64512L24.413,5.472L24.413,4.49928L24.413,2.65536C24.1358,2.76336,23.711,3.06576,23.711,4.0896z" opacity="0.3" id="Shadow"/>
 <rect xmlns="http://www.w3.org/2000/svg" x="22.019" height="3.15288" opacity="0.4" y="3.48336" id="ShadowExtra" width="0.70272"/>
 <path xmlns="http://www.w3.org/2000/svg" fill="#FFFFFF" d="M19.751,1.08576c0.22968,0,0.49104,-0.1008,0.6624,-0.1728c0.2016,-0.0792,0.57672,-0.144,0.96624,-0.144l1.46088,0c0.22464,0,0.22464,0.2448,0.22464,0.3744c0,0.1296,-0.01512,0.3816,-0.22464,0.3816l-3.06,0c-0.10728,0,-0.2304,-0.1152,-0.2304,-0.22392C19.5566,1.21536,19.6286,1.08576,19.751,1.08576z" opacity="0.25" id="ReflexRight"/>
 <circle xmlns="http://www.w3.org/2000/svg" fill="#FFFFFF" cx="6.99984" cy="1.13616" opacity="0.35" id="ReflexLeft" r="0.432"/>
 <rect xmlns="http://www.w3.org/2000/svg" fill="#FFFF33" x="22.019" height="1.62" opacity="0.5" y="0.42336" id="Reflex_gold" width="0.70272"/>
 <rect xmlns="http://www.w3.org/2000/svg" fill="#FFFFFF" x="22.019" height="0.7488" opacity="0.5" y="0.78336" id="Reflex_extra" width="0.70272"/>
</g>
</g></g><path stroke='#8c8c8c' stroke-width='2.15998' stroke-linecap='round' stroke-linejoin='round' fill='none' d='M65.4502,59.564L65.4312,66.7411' />
<path stroke='#8c8c8c' stroke-width='2.15998' stroke-linecap='round' stroke-linejoin='round' fill='none' d='M72.6312,59.564L72.6312,66.742' />
<path stroke='#8c8c8c' stroke-width='2.15998' stroke-linecap='round' stroke-linejoin='round' fill='none' d='M79.8171,59.564L79.8171,66.742' />
<g partID='57740'><g transform='translate(64.3702,35.483)' ><g xmlns="http://www.w3.org/2000/svg" id="breadboard">
 <rect xmlns="http://www.w3.org/2000/svg" fill="none" x="0" height="1" y="22.081" id="connector0pin" width="2.15998"/>
 <rect xmlns="http://www.w3.org/2000/svg" fill="none" x="7.18095" height="1" y="22.081" id="connector1pin" width="2.15998"/>
 <rect xmlns="http://www.w3.org/2000/svg" fill="none" x="14.3669" height="1" y="22.081" id="connector2pin" width="2.15998"/>
 <g xmlns="http://www.w3.org/2000/svg" fill="none" x1="1.08" stroke-width="2.15998" y2="31.259" x2="1.08" stroke="#8C8C8C" stroke-linecap="round" id="connector0leg" y1="24.081"/>
 <g xmlns="http://www.w3.org/2000/svg" fill="none" x1="8.261" stroke-width="2.15998" y2="31.259" x2="8.261" stroke="#8C8C8C" stroke-linecap="round" id="connector1leg" y1="24.081"/>
 <g xmlns="http://www.w3.org/2000/svg" fill="none" x1="15.447" stroke-width="2.15998" y2="31.259" x2="15.447" stroke="#8C8C8C" stroke-linecap="round" id="connector2leg" y1="24.081"/>
 <rect xmlns="http://www.w3.org/2000/svg" fill="#8C8C8C" x="7.17795" height="9.351" y="14.731" id="rect9506" width="2.15398"/>
 <path xmlns="http://www.w3.org/2000/svg" fill="#8C8C8C" d="M3.28698,14.731l0,3.316c0,0.424,-0.781994,1.059,-1.19799,1.425c-1.02499,0.891,-2.08798,1.819,-2.08798,2.992l0,1.619l2.15398,0c0,0,0,-1,0,-1.21c0,-0.517,0.903993,-1.389,1.34999,-1.769c0.996993,-0.87,1.94499,-1.69,1.94499,-2.749l0,-3.625L3.28698,14.73L3.28698,14.731z" id="path9510"/>
 <path xmlns="http://www.w3.org/2000/svg" fill="#8C8C8C" d="M13.2209,14.731l0,3.316c0,0.424,0.780994,1.059,1.19899,1.425c1.02699,0.891,2.08898,1.819,2.08898,2.992l0,1.619l-2.15398,0c0,0,0,-1,0,-1.21c0,-0.517,-0.903993,-1.389,-1.34999,-1.769c-0.997993,-0.87,-1.94499,-1.69,-1.94499,-2.749l0,-3.625L13.2209,14.73L13.2209,14.731z" id="path9514"/>
 <rect xmlns="http://www.w3.org/2000/svg" fill="#1A1A1A" x="1.61499" height="10.07" y="4.659" id="rect9553" width="13.2779"/>
 <path xmlns="http://www.w3.org/2000/svg" fill="#141414" d="M13.8889,4.659l0,2.453l0,8.228l0,1.842c0.631995,-0.713,1.00399,-1.553,1.00399,-2.453l0,0L14.8929,4.659L13.8889,4.659z" id="path9555"/>
 <path xmlns="http://www.w3.org/2000/svg" fill="#242424" d="M2.62098,4.659L1.61599,4.659l0,10.07l0,0c0,0.899,0.372997,1.74,1.00499,2.453L2.62098,15.34L2.62098,7.112L2.62098,4.659z" id="path9557"/>
 <path xmlns="http://www.w3.org/2000/svg" fill="#1F1F1F" d="M1.61499,4.659L1.61499,4.659c0,0.899,0.372997,1.74,1.00499,2.453l11.2759,0c0.631995,-0.713,1.00499,-1.554,1.00499,-2.453l0,0L1.61499,4.659z" id="path9559"/>
 <path xmlns="http://www.w3.org/2000/svg" fill="#141414" d="M8.25494,0C4.58697,0,1.61499,2.086,1.61499,4.661l13.2779,0C14.8929,2.086,11.9229,0,8.25494,0z" id="path9561"/>
 <rect xmlns="http://www.w3.org/2000/svg" x="2.62098" height="10.07" y="7.112" id="rect9563" width="11.2759"/>
 <path xmlns="http://www.w3.org/2000/svg" fill="#999999" d="M4.98996,14.359l0,-5.4l2.15998,0l0,1.079l1.07999,0l0,1.08l1.08099,0L9.31093,8.958l2.15898,0l0,5.4L9.31193,14.358l0,-1.079L8.23094,13.279l0,-1.08l-1.07999,0l0,2.161L4.98996,14.36z"/>
</g>
</g></g><g partID='854424550'><g transform='translate(9.80224,0)' ><g  id="breadboard">
 <circle  fill="none" cx="26.829" stroke-width="0.254" cy="16.342" stroke="#9A916C" id="connector3pin" r="2.772"/>
 <circle  fill="none" cx="5.229" stroke-width="0.254" cy="16.342" stroke="#9A916C" id="connector1pin" r="2.772"/>
 <circle  fill="none" cx="106.029" stroke-width="0.254" cy="16.342" stroke="#9A916C" id="connector2pin" r="2.772"/>
 <circle  fill="none" cx="127.629" stroke-width="0.254" cy="16.342" stroke="#9A916C" id="connector0pin" r="2.772"/>
 <g >
  <g >
   <g >
    <path  fill="#898989" d="M16.809,18.857L16.809,12.47l9.979,0c1.764,0,3.192,1.43,3.192,3.192c0,1.762,-1.432,3.191,-3.192,3.191L16.809,18.857L16.809,18.857z"/>
    <g >
     <path  fill="#DBDBDB" d="M1.85,24.309c-0.864,0,-1.851,-3.87,-1.851,-8.644c0,-4.774,0.984,-8.646,1.852,-8.646l1.808,0l0,17.287L1.85,24.309L1.85,24.309z"/>
     <path  fill="#898989" d="M1.85,24.309c-0.864,0,-1.282,-3.87,-1.282,-8.645c0,-4.773,0.418,-8.646,1.282,-8.646l2.229,0l0,17.287L1.85,24.309L1.85,24.309z"/>
     <g >
      <g >
       <path  fill="#7C7C7C" d="M26.563,12.266L26.563,7.021L3.657,7.021l0,17.287l22.905,0l0,-5.246l-1.235,0l0,-6.797L26.563,12.266L26.563,12.266zM15.253,17.651L5.804,17.651l0,-3.976l9.449,0c0.859,0,1.557,0.891,1.557,1.987C16.809,16.762,16.115,17.651,15.253,17.651z"/>
      </g>
     </g>
     <g >
      <rect  fill="#3D3D3D" x="3.45" height="17.276" y="7.031" width="0.729"/>
      <rect  fill="#666666" x="2.723" height="17.276" y="7.031" width="0.728"/>
      <rect  fill="#777777" x="1.994" height="17.276" y="7.031" width="0.729"/>
     </g>
     <path  fill="#898989" d="M4.981,15.665c0,2.314,-0.684,4.191,-1.521,4.191c-0.676,0,-0.855,-1.877,-0.855,-4.191c0,-2.315,0.183,-4.192,0.855,-4.192C4.298,11.472,4.981,13.349,4.981,15.665z"/>
     <path  fill="none" stroke-miterlimit="10" d="M3.458,19.857c-0.475,0,-0.855,-1.877,-0.855,-4.191c0,-2.315,0.384,-4.192,0.855,-4.192" stroke-width="0.2171" enable-background="new    " opacity="0.5" stroke="#A5A5A5" stroke-linecap="round"/>
     <path  fill="none" stroke-miterlimit="10" d="M3.457,19.857c0.842,0,1.522,-1.877,1.522,-4.191c0,-2.315,-0.683,-4.192,-1.522,-4.192" stroke-width="0.3256" stroke="#606060"/>
     <g >
      <path  fill="none" stroke-miterlimit="10" d="M4.164,18.392c0.277,-0.663,0.459,-1.633,0.459,-2.728c0,-1.097,-0.182,-2.063,-0.459,-2.729" stroke-width="0.2809" stroke="#A5A5A5" stroke-linecap="round"/>
     </g>
    </g>
    <rect  fill="#FFFFFF" x="25.046" height="6.797" enable-background="new    " opacity="0.2" y="12.266" width="0.279"/>
   </g>
   <g >
    <path  fill="#898989" d="M116.047,18.857L116.047,12.47l-9.979,0c-1.766,0,-3.193,1.43,-3.193,3.192c0,1.762,1.432,3.191,3.193,3.191L116.047,18.857L116.047,18.857z"/>
    <g >
     <path  fill="#DBDBDB" d="M131.006,24.309c0.865,0,1.854,-3.87,1.854,-8.645c0,-4.773,-0.986,-8.646,-1.854,-8.646l-1.805,0l0,17.287L131.006,24.309L131.006,24.309z"/>
     <path  fill="#898989" d="M131.006,24.309c0.865,0,1.283,-3.87,1.283,-8.645c0,-4.773,-0.418,-8.646,-1.283,-8.646l-2.227,0l0,17.287L131.006,24.309L131.006,24.309z"/>
     <g >
      <g >
       <path  fill="#7C7C7C" d="M106.293,7.021l0,5.244l1.238,0l0,6.797l-1.238,0l0,5.246l22.908,0L129.201,7.021L106.293,7.021zM127.052,17.651l-9.449,0c-0.857,0,-1.559,-0.892,-1.559,-1.985c0,-1.1,0.697,-1.987,1.559,-1.987l9.449,0L127.052,17.651z"/>
      </g>
     </g>
     <g >
      <rect  fill="#3D3D3D" x="128.677" height="17.276" y="7.031" width="0.73"/>
      <rect  fill="#666666" x="129.408" height="17.276" y="7.031" width="0.727"/>
      <rect  fill="#777777" x="130.133" height="17.276" y="7.031" width="0.729"/>
     </g>
     <path  fill="#898989" d="M127.875,15.665c0,2.314,0.684,4.191,1.52,4.191c0.678,0,0.857,-1.877,0.857,-4.191c0,-2.315,-0.184,-4.192,-0.857,-4.192C128.556,11.472,127.875,13.349,127.875,15.665z"/>
     <path  fill="none" stroke-miterlimit="10" d="M129.396,19.857c0.477,0,0.857,-1.877,0.857,-4.191c0,-2.315,-0.385,-4.192,-0.857,-4.192" stroke-width="0.2171" enable-background="new    " opacity="0.5" stroke="#A5A5A5" stroke-linecap="round"/>
     <path  fill="none" stroke-miterlimit="10" d="M129.398,19.857c-0.842,0,-1.521,-1.877,-1.521,-4.191c0,-2.315,0.684,-4.192,1.521,-4.192" stroke-width="0.3256" stroke="#606060"/>
     <g >
      <path  fill="none" stroke-miterlimit="10" d="M128.693,18.392c-0.277,-0.663,-0.457,-1.633,-0.457,-2.728c0,-1.097,0.18,-2.063,0.459,-2.729" stroke-width="0.2809" stroke="#A5A5A5" stroke-linecap="round"/>
     </g>
    </g>
    <rect  fill="#FFFFFF" x="107.533" height="6.797" enable-background="new    " opacity="0.2" y="12.266" width="0.277"/>
   </g>
  </g>
  <g >
   <path  fill="#353535" d="M127.051,27.933c0,1.752,-1.666,3.185,-3.701,3.185L7.087,31.118c-2.036,0,-3.7,-1.433,-3.7,-3.185L3.387,4.59c0,-1.75,1.664,-3.186,3.7,-3.186l116.262,0c2.037,0,3.701,1.436,3.701,3.186L127.05,27.933L127.051,27.933z"/>
   <path  fill="#CE925D" d="M91.453,1.456l32.145,0c2.035,0,3.701,1.432,3.701,3.185l0,23.348c0,1.75,-1.666,3.185,-3.701,3.185L91.453,31.174L91.453,1.456z"/>
   <path  d="M7.369,29.898c-1.533,0,-3.488,-1.223,-3.488,-2.667L3.881,20.55c0,1.447,1.955,3.717,3.488,3.717l115.416,0c1.535,0,3.488,-2.27,3.488,-3.717l0,6.683c0,1.448,-1.953,2.666,-3.488,2.666L7.369,29.898L7.369,29.898z" enable-background="new    " opacity="0.35"/>
   <path  fill="#B2B2B2" d="M126.947,16.063c0,6.653,-0.293,12.047,-0.658,12.047s-0.365,-24.094,0,-24.094C126.654,4.018,126.947,9.411,126.947,16.063"/>
   <path  fill="#606060" d="M126.701,20.17c-0.242,0,-0.242,-8.9,0,-8.9l-0.006,0.001c0,0.549,0.262,0.993,0.262,0.993c0.637,0,1.156,0.443,1.156,0.994l0,4.923c0,0.547,-0.521,0.993,-1.156,0.993c0,0,-0.262,0.444,-0.262,0.993L126.701,20.17L126.701,20.17z"/>
  </g>
  <g >
   <g transform="matrix(1, 0, 0, 1, 31.4773, 19.0081)">
    <text  fill="#FFFFFF" font-family="'OCRA'" font-size="10">AAA Battery</text>
   </g>
  </g>
  <g >
   <g  opacity="0.35">
    <g >
     <path  fill="#FFFFFF" d="M108.918,4.68c-1.559,0,-2.834,-0.469,-2.834,-1.041c0,-0.573,-1.273,-1.041,-2.836,-1.041L29.755,2.598c-1.559,0,-2.834,0.468,-2.834,1.041c0,0.572,-1.274,1.041,-2.835,1.041L9.432,4.68c-1.561,0,-2.834,1.274,-2.834,2.834l0,1.861c0,1.56,1.273,2.834,2.834,2.834l111.191,0c1.563,0,2.836,-1.274,2.836,-2.834L123.459,7.514c0,-1.56,-1.273,-2.834,-2.836,-2.834L108.918,4.68z"/>
     <path  fill="#FFFFFF" d="M108.918,4.68c-1.559,0,-2.834,-0.469,-2.834,-1.041c0,-0.573,-1.273,-1.041,-2.836,-1.041L29.755,2.598c-1.559,0,-2.834,0.468,-2.834,1.041c0,0.572,-1.274,1.041,-2.835,1.041L9.432,4.68c-1.561,0,-2.834,1.274,-2.834,2.834l0,1.861c0,1.56,1.273,2.834,2.834,2.834l111.191,0c1.563,0,2.836,-1.274,2.836,-2.834L123.459,7.514c0,-1.56,-1.273,-2.834,-2.836,-2.834L108.918,4.68z"/>
    </g>
   </g>
  </g>
  <g >
   <g >
    <g >
     <path  fill="#DBDBDB" d="M124.926,1.51c0,-0.479,-0.615,-1.51,-3.287,-1.51l-10.816,0c-2.666,0,-3.289,1.029,-3.289,1.51l0,1.616l17.396,0L124.926,1.51L124.926,1.51z"/>
    </g>
    <g >
     <path  fill="#898989" d="M124.926,1.51c0,-0.332,-0.615,-1.315,-3.287,-1.237l-10.816,0c-2.666,-0.078,-3.289,0.979,-3.289,1.237l0,1.517l17.396,0L124.926,1.51L124.926,1.51z"/>
    </g>
    <g >
     <rect  fill="#3D3D3D" x="107.533" height="0.667" y="2.801" width="17.395"/>
     <rect  fill="#666666" x="107.533" height="0.668" y="2.133" width="17.395"/>
     <rect  fill="#777777" x="107.533" height="0.666" y="1.467" width="17.395"/>
    </g>
   </g>
   <g >
    <g >
     <path  fill="#DBDBDB" d="M124.926,31.173c0,0.479,-0.615,1.511,-3.287,1.511l-10.816,0c-2.666,0,-3.289,-1.032,-3.289,-1.511l0,-1.614l17.396,0L124.926,31.173L124.926,31.173z"/>
    </g>
    <g >
     <path  fill="#898989" d="M124.926,31.173c0,0.332,-0.615,1.314,-3.287,1.238l-10.816,0c-2.666,0.076,-3.289,-0.979,-3.289,-1.238l0,-1.515l17.396,0L124.926,31.173L124.926,31.173z"/>
    </g>
    <g >
     <rect  fill="#3D3D3D" x="107.533" height="0.667" y="29.216" width="17.395"/>
     <rect  fill="#666666" x="107.533" height="0.666" y="29.883" width="17.395"/>
     <rect  fill="#777777" x="107.533" height="0.668" y="30.549" width="17.395"/>
    </g>
   </g>
   <g >
    <g >
     <g >
      <path  fill="#DBDBDB" d="M7.93,1.51C7.93,1.03,8.548,0,11.221,0l10.813,0c2.668,0,3.291,1.029,3.291,1.51l0,1.616L7.93,3.126L7.93,1.51z"/>
     </g>
     <g >
      <path  fill="#898989" d="M7.93,1.51c0,-0.332,0.617,-1.315,3.291,-1.237l10.813,0c2.668,-0.078,3.291,0.979,3.291,1.237l0,1.517L7.93,3.027L7.93,1.51z"/>
     </g>
     <g >
      <rect  fill="#3D3D3D" x="7.93" height="0.667" y="2.801" width="17.396"/>
      <rect  fill="#666666" x="7.93" height="0.668" y="2.133" width="17.396"/>
      <rect  fill="#777777" x="7.93" height="0.666" y="1.467" width="17.396"/>
     </g>
    </g>
   </g>
   <g >
    <g >
     <path  fill="#DBDBDB" d="M7.93,31.173c0,0.479,0.617,1.511,3.291,1.511l10.813,0c2.668,0,3.291,-1.032,3.291,-1.511l0,-1.614L7.93,29.559L7.93,31.173z"/>
    </g>
    <g >
     <path  fill="#898989" d="M7.93,31.173c0,0.332,0.617,1.314,3.291,1.238l10.813,0c2.668,0.076,3.291,-0.979,3.291,-1.238l0,-1.515L7.93,29.658L7.93,31.173z"/>
    </g>
    <g >
     <rect  fill="#3D3D3D" x="7.93" height="0.667" y="29.216" width="17.396"/>
     <rect  fill="#666666" x="7.93" height="0.666" y="29.883" width="17.396"/>
     <rect  fill="#777777" x="7.93" height="0.668" y="30.549" width="17.396"/>
    </g>
   </g>
  </g>
 </g>
 <g transform="matrix(1, 0, 0, 1, 11.1306, 18.8381)">
  <text  fill="#F8F8F8" font-family="'OCRA'" font-size="9.36">-</text>
 </g>
 <g transform="matrix(1, 0, 0, 1, 118.697, 18.8381)">
  <text  fill="#F8F8F8" font-family="'OCRA'" font-size="9.36">+</text>
 </g>
</g>
</g></g><path stroke='#8c8c8c' stroke-width='2.15136' stroke-linecap='round' stroke-linejoin='round' fill='none' d='M87.0289,98.2916L79.831,88.3421' />
<path stroke='#8c8c8c' stroke-width='2.15136' stroke-linecap='round' stroke-linejoin='round' fill='none' d='M94.231,98.2916L94.231,88.3421' />
<g partID='854424580'><g transform='translate(82.5022,127.498)' ><g transform='matrix(1,0,0,-1,0,0)'  ><g xmlns="http://www.w3.org/2000/svg" id="breadboard">
 <rect xmlns="http://www.w3.org/2000/svg" fill="none" x="3.45096" height="0.72" y="25.421" id="connector0pin" width="2.15208"/>
 <rect xmlns="http://www.w3.org/2000/svg" fill="none" x="10.651" height="0.72" y="25.421" id="connector1pin" width="2.15424"/>
 <g xmlns="http://www.w3.org/2000/svg" fill="none" x1="6.287" stroke-width="2.15136" y2="74.754" x2="6.287" stroke="#8C8C8C" stroke-linecap="round" id="connector0leg" y1="40.565"/>
 <g xmlns="http://www.w3.org/2000/svg" fill="none" x1="16.29" stroke-width="2.15136" y2="74.754" x2="16.29" stroke="#8C8C8C" stroke-linecap="round" id="connector1leg" y1="40.565"/>
 <rect xmlns="http://www.w3.org/2000/svg" fill="#8C8C8C" x="3.45096" height="9.82728" y="19.3795" width="2.15136"/>
 <path xmlns="http://www.w3.org/2000/svg" fill="#8C8C8C" d="M12.8045,29.2068c0,-1.1736,-1.06488,-2.1024,-2.088,-2.9916c-0.41616,-0.3672,-1.19952,-1.00152,-1.19952,-1.42488l0,-5.47056l-2.16144,0l0,5.78016c0,1.0584,0.94752,1.87848,1.94616,2.74824c0.44424,0.37584,1.34856,1.24992,1.34856,1.76976"/>
 <g xmlns="http://www.w3.org/2000/svg" id="g12">
  <path xmlns="http://www.w3.org/2000/svg" fill="#e60000" d="M14.1732,13.001L14.1732,7.0884C14.1732,3.1752,11.0052,0,7.08768,0C3.1752,0,0,3.16944,0,7.0884l0,13.649c1.47384,1.65096,4.0968,2.75256,7.08768,2.75256c4.61952,0,8.36856,-2.61792,8.36856,-5.85936l0,-1.52352C15.4555,14.9645,14.9818,13.9032,14.1732,13.001z" opacity="0.3" id="color_path14"/>
  <path xmlns="http://www.w3.org/2000/svg" fill="#E6E6E6" d="M14.1732,13.001L14.1732,7.0884C14.1732,3.1752,11.0052,0,7.08768,0C3.1752,0,0,3.16944,0,7.0884l0,13.649c1.47384,1.65096,4.0968,2.75256,7.08768,2.75256c4.61952,0,8.36856,-2.61792,8.36856,-5.85936l0,-1.52352C15.4555,14.9645,14.9818,13.9032,14.1732,13.001z" opacity="0.5" id="path16"/>
  <path xmlns="http://www.w3.org/2000/svg" fill="#D1D1D1" d="M14.1732,13.001l0,3.10536c0,2.73888,-3.16584,4.96512,-7.08552,4.96512C3.1752,21.0715,0,18.8525,0,16.1064l0,3.10536L0,20.736c1.47384,1.65168,4.0968,2.75256,7.08768,2.75256c4.61952,0,8.36856,-2.61792,8.36856,-5.85864L15.4562,16.1064C15.4555,14.9645,14.9818,13.9032,14.1732,13.001z" opacity="0.9" id="path18"/>
  <path xmlns="http://www.w3.org/2000/svg" fill="#e60000" d="M14.1732,13.001l0,3.10536c0,2.73888,-3.16584,4.96512,-7.08552,4.96512C3.1752,21.0715,0,18.8525,0,16.1064l0,3.10536L0,20.736c1.47384,1.65168,4.0968,2.75256,7.08768,2.75256c4.61952,0,8.36856,-2.61792,8.36856,-5.85864L15.4562,16.1064C15.4555,14.9645,14.9818,13.9032,14.1732,13.001z" opacity="0.7" id="color_path20"/>
  <path xmlns="http://www.w3.org/2000/svg" fill="#e60000" d="M14.1732,13.001l0,3.10536c0,2.73888,-3.16584,4.96512,-7.08552,4.96512C3.1752,21.0715,0,18.8525,0,16.1064l0,3.10536c1.47384,1.65024,4.0968,2.75256,7.08768,2.75256c4.61952,0,8.36856,-2.61792,8.36856,-5.85864C15.4555,14.9645,14.9818,13.9032,14.1732,13.001z" opacity="0.25" id="color_path22"/>
  <ellipse xmlns="http://www.w3.org/2000/svg" fill="#E6E6E6" cx="7.08768" ry="4.9608" cy="16.1064" opacity="0.25" rx="7.08696" id="ellipse24"/>
  <ellipse xmlns="http://www.w3.org/2000/svg" fill="#e60000" cx="7.08768" ry="4.9608" cy="16.1064" opacity="0.25" rx="7.08696" id="color_ellipse26"/>
  <polygon xmlns="http://www.w3.org/2000/svg" fill="#666666" points="2.2032,9.648,2.2032,16.1071,3.19608,16.1071,3.19608,13.0946,6.0156,13.0946,10.0123,8.80488,3.40704,8.80488" id="polygon28"/>
  <polygon xmlns="http://www.w3.org/2000/svg" fill="#666666" points="10.7784,8.52408,11.2147,9.03384,7.41168,13.0946,11.0599,13.0946,11.0599,16.1071,11.9736,16.1071,11.9736,8.52408" id="polygon30"/>
  <path xmlns="http://www.w3.org/2000/svg" fill="#e60000" d="M14.1732,13.001L14.1732,7.0884C14.1732,3.1752,11.0052,0,7.08768,0C3.1752,0,0,3.16944,0,7.0884l0,13.649c1.47384,1.65096,4.0968,2.75256,7.08768,2.75256c4.61952,0,8.36856,-2.61792,8.36856,-5.85936l0,-1.52352C15.4555,14.9645,14.9818,13.9032,14.1732,13.001z" opacity="0.65" id="color_path32"/>
  <path xmlns="http://www.w3.org/2000/svg" fill="#FFFFFF" d="M10.3882,3.75408l1.4364,-0.2736c-0.84168,-1.13184,-2.08224,-1.95768,-3.54168,-2.23848l0.25416,1.08072C9.30096,2.59344,9.94392,3.1032,10.3882,3.75408z" opacity="0.5" id="path34"/>
  <path xmlns="http://www.w3.org/2000/svg" fill="#FFFFFF" d="M0.76824,19.926l0,1.51992c0.64872,0.5292,1.43352,0.97632,2.3076,1.31688l0,-1.52496C2.19744,20.9016,1.41912,20.4559,0.76824,19.926z" opacity="0.5" id="path36"/>
  <path xmlns="http://www.w3.org/2000/svg" fill="#FFFFFF" d="M11.0729,20.2097c-0.2556,0.1224,-0.52992,0.22968,-0.80568,0.32976c-0.05832,0.01944,-0.11736,0.04032,-0.17784,0.05832c-0.56376,0.17928,-1.16136,0.31896,-1.79496,0.39456c-0.07488,0.00936,-0.1512,0.01872,-0.22464,0.01944c-0.3204,0.03024,-0.64368,0.05832,-0.97056,0.05832c-0.14832,0,-0.30744,-0.01512,-0.4716,-0.02376c-1.20024,-0.05688,-2.33064,-0.31464,-3.2976,-0.73944L3.33,11.9174L3.33,7.092c0,-1.47096,0.84816,-2.72952,2.0736,-3.34944L5.38128,3.68928l-1.24776,-1.512c-1.66968,1.00296,-2.79,2.8224,-2.79,4.91184l0,11.9052c-0.04968,-0.04968,-0.30816,-0.30888,-0.48024,-0.52992l-0.30744,0.6876c1.40112,1.48176,3.8088,2.46168,6.54264,2.46168c1.67976,0,3.23712,-0.37368,4.51152,-1.00224l-0.52704,-0.40896C11.0729,20.2097,11.0729,20.2097,11.0729,20.2097z" opacity="0.5" id="path38"/>
 </g>
</g>
</g></g></g><g partID='854426480'><g transform='translate(0,82.6583)' ><g transform='matrix(0,-1,1,0,0,0)'  ><g xmlns="http://www.w3.org/2000/svg" id="breadboard">
 <g xmlns="http://www.w3.org/2000/svg">
  <polygon xmlns="http://www.w3.org/2000/svg" fill="#8C8C8C" points="14.8219,23.7449,14.8219,15.4706,16.9819,15.4706,16.9819,23.7449"/>
  <polygon xmlns="http://www.w3.org/2000/svg" fill="#8C8C8C" points="0.42192,8.27496,0.42192,0.00072,2.58048,0.00072,2.58048,8.27496"/>
  <polygon xmlns="http://www.w3.org/2000/svg" fill="#8C8C8C" points="14.8219,8.27568,14.8219,0,16.9819,0,16.9819,8.27568"/>
  <polygon xmlns="http://www.w3.org/2000/svg" fill="#8C8C8C" points="0.42264,23.7463,0.42264,15.4706,2.58192,15.4706,2.58192,23.7463"/>
  <rect xmlns="http://www.w3.org/2000/svg" x="0.00864" height="17.6544" y="3.04704" width="17.653"/>
  <path xmlns="http://www.w3.org/2000/svg" fill="#999999" d="M17.6609,19.2614c0,0.79272,-0.64512,1.43928,-1.44,1.43928L1.44792,20.7007c-0.79272,0,-1.43928,-0.64656,-1.43928,-1.43928L0.00864,4.4856c0,-0.792,0.64656,-1.43856,1.43928,-1.43856l14.7751,0c0.79416,0,1.43784,0.64656,1.43784,1.43856L17.6609,19.2614L17.6609,19.2614z"/>
  <circle xmlns="http://www.w3.org/2000/svg" cx="2.57976" cy="5.61816" r="1.52928"/>
  <circle xmlns="http://www.w3.org/2000/svg" cx="15.133" cy="5.6448" r="1.52928"/>
  <circle xmlns="http://www.w3.org/2000/svg" cx="15.1063" cy="18.198" r="1.52928"/>
  <circle xmlns="http://www.w3.org/2000/svg" cx="2.55312" cy="18.1699" r="1.52928"/>
  <circle xmlns="http://www.w3.org/2000/svg" fill="#3F3F3F" cx="8.8344" cy="11.8735" r="5.148"/>
  <linearGradient xmlns="http://www.w3.org/2000/svg" gradientUnits="userSpaceOnUse" x1="-192.873" y2="-335.051" x2="-182.577" id="SVGID_1_" y1="-335.051" gradientTransform="matrix(1 0 0 -1 273 -448.8574)">
   <stop xmlns="http://www.w3.org/2000/svg" offset="0" style="stop-color:#333333"/>
   <stop xmlns="http://www.w3.org/2000/svg" offset="1" style="stop-color:#3C3C3C"/>
  </linearGradient>
  <circle xmlns="http://www.w3.org/2000/svg" fill="url(#SVGID_1_)" cx="8.8344" cy="11.8735" r="5.148"/>
  <circle xmlns="http://www.w3.org/2000/svg" cx="8.9244" enable-background="new    " cy="12.4855" opacity="0.6" r="4.53024"/>
  <circle xmlns="http://www.w3.org/2000/svg" fill="#735348" cx="8.84088" cy="11.9038" r="4.41504"/>
  <path xmlns="http://www.w3.org/2000/svg" fill="#FFFFFF" d="M2.38176,5.53824c0.03024,-0.072,0.08568,-0.12744,0.16416,-0.14112L2.39472,4.43376C2.33712,4.44312,2.27592,4.4352,2.21904,4.45248L2.2176,4.44816C1.8612,4.55832,1.5948,4.824,1.45872,5.16312L2.38176,5.53824z" enable-background="new    " opacity="0.5"/>
  <path xmlns="http://www.w3.org/2000/svg" fill="#FFFFFF" d="M14.9335,5.56416c0.02952,-0.07344,0.08496,-0.12888,0.16488,-0.14184l-0.14904,-0.96336c-0.05904,0.0108,-0.11952,0.00144,-0.1764,0.01872l-0.00216,-0.00504c-0.35496,0.10944,-0.62208,0.37512,-0.75816,0.71496L14.9335,5.56416z" enable-background="new    " opacity="0.5"/>
  <path xmlns="http://www.w3.org/2000/svg" fill="#FFFFFF" d="M14.909,18.1174c0.02952,-0.07344,0.08352,-0.1296,0.16344,-0.14184l-0.14904,-0.96264c-0.05904,0.0108,-0.11952,0.00144,-0.17712,0.01872l-0.00144,-0.0072c-0.35568,0.10944,-0.6228,0.37512,-0.75816,0.71568L14.909,18.1174z" enable-background="new    " opacity="0.5"/>
  <path xmlns="http://www.w3.org/2000/svg" fill="#FFFFFF" d="M2.35512,18.0907c0.02952,-0.07344,0.08496,-0.12672,0.16488,-0.1404l-0.1512,-0.96408c-0.05904,0.01224,-0.11952,0.00144,-0.1764,0.01944l-0.00144,-0.00504c-0.3564,0.108,-0.6228,0.37512,-0.76032,0.71424L2.35512,18.0907z" enable-background="new    " opacity="0.5"/>
  <path xmlns="http://www.w3.org/2000/svg" fill="#FFFFFF" d="M10.4206,7.78896c-0.342,-0.1332,-0.702,-0.22896,-1.08288,-0.27216c-0.94752,-0.10584,-1.85472,0.1044,-2.63016,0.53424L6.61104,8.3016c0.86616,-0.46296,1.87488,-0.67752,2.92464,-0.56016c0.32256,0.03744,0.63648,0.10944,0.93672,0.20448L10.4206,7.78896z" enable-background="new    " opacity="0.6"/>
 </g>
</g>
</g></g></g><g partID='854424640'><line stroke-linecap='round' stroke='#8c0000' x1='137.501' y1='45.0873' x2='137.431' y2='16.342' stroke-width='3.2' /><line stroke-linecap='round' stroke='#cc1414' x1='137.501' y1='45.0873' x2='137.431' y2='16.342' stroke-width='1.6' /></g><g partID='854424610'><line stroke-linecap='round' stroke='#8c0000' x1='94.231' y1='59.542' x2='137.501' y2='45.0873' stroke-width='3.2' /><line stroke-linecap='round' stroke='#cc1414' x1='94.231' y1='59.542' x2='137.501' y2='45.0873' stroke-width='1.6' /></g><g partID='854424700'><line stroke-linecap='round' stroke='#000000' x1='15.0238' y1='45.0873' x2='15.0316' y2='16.342' stroke-width='3.2' /><line stroke-linecap='round' stroke='#404040' x1='15.0238' y1='45.0873' x2='15.0316' y2='16.342' stroke-width='1.6' /></g><g partID='854424670'><line stroke-linecap='round' stroke='#000000' x1='65.4302' y1='59.542' x2='15.0233' y2='45.0873' stroke-width='3.2' /><line stroke-linecap='round' stroke='#404040' x1='65.4302' y1='59.542' x2='15.0233' y2='45.0873' stroke-width='1.6' /></g><g partID='854425570'><line stroke-linecap='round' stroke='#000000' x1='22.231' y1='81.142' x2='72.631' y2='81.141' stroke-width='3.2' /><line stroke-linecap='round' stroke='#404040' x1='22.231' y1='81.142' x2='72.631' y2='81.141' stroke-width='1.6' /></g><g partID='854425600'><line stroke-linecap='round' stroke='#000000' x1='22.231' y1='66.742' x2='65.431' y2='73.942' stroke-width='3.2' /><line stroke-linecap='round' stroke='#404040' x1='22.231' y1='66.742' x2='65.431' y2='73.942' stroke-width='1.6' /></g></svg>