<?xml version='1.0' encoding='UTF-8' standalone='no'?>
<!-- Created with Fritzing (http://www.fritzing.org/) -->
<svg xmlns:svg='http://www.w3.org/2000/svg' xmlns='http://www.w3.org/2000/svg' version='1.2' baseProfile='tiny' x='0in' y='0in' width='2.30063in' height='1.90338in' viewBox='0 0 165.645 137.043' >
<g partID='57660'><g xmlns="http://www.w3.org/2000/svg" id="board">
 <rect xmlns="http://www.w3.org/2000/svg" x="0.288" stroke-width="0.576" height="136.467" width="165.069" fill-opacity="0.5" y="0.288" stroke="#111111" id="boardoutline" fill="#ffffff"/>
</g>
</g><g partID='57662'><g xmlns="http://www.w3.org/2000/svg" id="silkscreen0">
 <rect xmlns="http://www.w3.org/2000/svg" x="0.288" stroke-width="0.576" height="136.467" width="165.069" y="0.288" stroke="#000000" fill="none"/>
</g>
</g><g partID='61620'><g transform='translate(34.7536,106.803)' ><g xmlns="http://www.w3.org/2000/svg" id="copper0">
 <circle xmlns="http://www.w3.org/2000/svg" stroke-width="1.44" r="2.088" cx="5.04" cy="5.04" stroke="rgb(255, 191, 0)" fill="none" id="connector0pin"/>
 <circle xmlns="http://www.w3.org/2000/svg" stroke-width="1.44" r="2.088" cx="5.04" cy="12.24" stroke="rgb(255, 191, 0)" fill="none" id="connector1pin"/>
 <circle xmlns="http://www.w3.org/2000/svg" stroke-width="1.44" r="2.088" cx="5.04" cy="19.44" stroke="rgb(255, 191, 0)" fill="none" id="connector2pin"/>
</g>
</g></g><g partID='58190'><g transform='translate(14.1616,50.4991)' ><g xmlns="http://www.w3.org/2000/svg" gorn="0.1.32" id="copper0">
 <circle xmlns="http://www.w3.org/2000/svg" stroke-width="0.72" connectorname="1" r="1.512" cy="25.344" stroke="#F7BD13" cx="4.032" gorn="0.1.32.0" fill="none" id="connector0pad"/>
 <path xmlns="http://www.w3.org/2000/svg" stroke-width="0" d="m4.032,21.6a1.872,1.872,0,0,1,1.872,1.872l0,3.744a1.872,1.872,0,0,1,-1.872,1.872l0,0a1.872,1.872,0,0,1,-1.872,-1.872l0,-3.744a1.872,1.872,0,0,1,1.872,-1.872l0,0zM2.88,25.344a1.152,1.152,0,1,0,2.304,0,1.152,1.152,0,1,0,-2.304,0z" stroke="none" fill="#F7BD13"/>
 <circle xmlns="http://www.w3.org/2000/svg" stroke-width="0.72" connectorname="2" r="1.512" cy="25.344" stroke="#F7BD13" cx="11.232" gorn="0.1.32.2" fill="none" id="connector1pad"/>
 <path xmlns="http://www.w3.org/2000/svg" stroke-width="0" d="m11.232,21.6a1.872,1.872,0,0,1,1.872,1.872l0,3.744a1.872,1.872,0,0,1,-1.872,1.872l0,0a1.872,1.872,0,0,1,-1.872,-1.872l0,-3.744a1.872,1.872,0,0,1,1.872,-1.872l0,0zM10.08,25.344a1.152,1.152,0,1,0,2.304,0,1.152,1.152,0,1,0,-2.304,0z" stroke="none" fill="#F7BD13"/>
 <circle xmlns="http://www.w3.org/2000/svg" stroke-width="0.72" connectorname="3" r="1.512" cy="25.344" stroke="#F7BD13" cx="18.432" gorn="0.1.32.4" fill="none" id="connector2pad"/>
 <path xmlns="http://www.w3.org/2000/svg" stroke-width="0" d="m18.432,21.6a1.872,1.872,0,0,1,1.872,1.872l0,3.744a1.872,1.872,0,0,1,-1.872,1.872l0,0a1.872,1.872,0,0,1,-1.872,-1.872l0,-3.744a1.872,1.872,0,0,1,1.872,-1.872l0,0zM17.28,25.344a1.152,1.152,0,1,0,2.304,0,1.152,1.152,0,1,0,-2.304,0z" stroke="none" fill="#F7BD13"/>
 <circle xmlns="http://www.w3.org/2000/svg" stroke-width="0.72" connectorname="4" r="1.512" cy="25.344" stroke="#F7BD13" cx="25.632" gorn="0.1.32.6" fill="none" id="connector3pad"/>
 <path xmlns="http://www.w3.org/2000/svg" stroke-width="0" d="m25.632,21.6a1.872,1.872,0,0,1,1.872,1.872l0,3.744a1.872,1.872,0,0,1,-1.872,1.872l0,0a1.872,1.872,0,0,1,-1.872,-1.872l0,-3.744a1.872,1.872,0,0,1,1.872,-1.872l0,0zM24.48,25.344a1.152,1.152,0,1,0,2.304,0,1.152,1.152,0,1,0,-2.304,0z" stroke="none" fill="#F7BD13"/>
 <circle xmlns="http://www.w3.org/2000/svg" stroke-width="0.72" connectorname="5" r="1.512" cy="25.344" stroke="#F7BD13" cx="32.832" gorn="0.1.32.8" fill="none" id="connector4pad"/>
 <path xmlns="http://www.w3.org/2000/svg" stroke-width="0" d="m32.832,21.6a1.872,1.872,0,0,1,1.872,1.872l0,3.744a1.872,1.872,0,0,1,-1.872,1.872l0,0a1.872,1.872,0,0,1,-1.872,-1.872l0,-3.744a1.872,1.872,0,0,1,1.872,-1.872l0,0zM31.68,25.344a1.152,1.152,0,1,0,2.304,0,1.152,1.152,0,1,0,-2.304,0z" stroke="none" fill="#F7BD13"/>
 <circle xmlns="http://www.w3.org/2000/svg" stroke-width="0.72" connectorname="6" r="1.512" cy="25.344" stroke="#F7BD13" cx="40.032" gorn="0.1.32.10" fill="none" id="connector5pad"/>
 <path xmlns="http://www.w3.org/2000/svg" stroke-width="0" d="m40.032,21.6a1.872,1.872,0,0,1,1.872,1.872l0,3.744a1.872,1.872,0,0,1,-1.872,1.872l0,0a1.872,1.872,0,0,1,-1.872,-1.872l0,-3.744a1.872,1.872,0,0,1,1.872,-1.872l0,0zM38.88,25.344a1.152,1.152,0,1,0,2.304,0,1.152,1.152,0,1,0,-2.304,0z" stroke="none" fill="#F7BD13"/>
 <circle xmlns="http://www.w3.org/2000/svg" stroke-width="0.72" connectorname="7" r="1.512" cy="25.344" stroke="#F7BD13" cx="47.232" gorn="0.1.32.12" fill="none" id="connector6pad"/>
 <path xmlns="http://www.w3.org/2000/svg" stroke-width="0" d="m47.232,21.6a1.872,1.872,0,0,1,1.872,1.872l0,3.744a1.872,1.872,0,0,1,-1.872,1.872l0,0a1.872,1.872,0,0,1,-1.872,-1.872l0,-3.744a1.872,1.872,0,0,1,1.872,-1.872l0,0zM46.08,25.344a1.152,1.152,0,1,0,2.304,0,1.152,1.152,0,1,0,-2.304,0z" stroke="none" fill="#F7BD13"/>
 <circle xmlns="http://www.w3.org/2000/svg" stroke-width="0.72" connectorname="8" r="1.512" cy="25.344" stroke="#F7BD13" cx="54.432" gorn="0.1.32.14" fill="none" id="connector7pad"/>
 <path xmlns="http://www.w3.org/2000/svg" stroke-width="0" d="m54.432,21.6a1.872,1.872,0,0,1,1.872,1.872l0,3.744a1.872,1.872,0,0,1,-1.872,1.872l0,0a1.872,1.872,0,0,1,-1.872,-1.872l0,-3.744a1.872,1.872,0,0,1,1.872,-1.872l0,0zM53.28,25.344a1.152,1.152,0,1,0,2.304,0,1.152,1.152,0,1,0,-2.304,0z" stroke="none" fill="#F7BD13"/>
 <circle xmlns="http://www.w3.org/2000/svg" stroke-width="0.72" connectorname="9" r="1.512" cy="3.744" stroke="#F7BD13" cx="54.432" gorn="0.1.32.16" fill="none" id="connector8pad"/>
 <path xmlns="http://www.w3.org/2000/svg" stroke-width="0" d="m54.432,0a1.872,1.872,0,0,1,1.872,1.872l0,3.744a1.872,1.872,0,0,1,-1.872,1.872l0,0a1.872,1.872,0,0,1,-1.872,-1.872l0,-3.744a1.872,1.872,0,0,1,1.872,-1.872l0,0zM53.28,3.744a1.152,1.152,0,1,0,2.304,0,1.152,1.152,0,1,0,-2.304,0z" stroke="none" fill="#F7BD13"/>
 <circle xmlns="http://www.w3.org/2000/svg" stroke-width="0.72" connectorname="10" r="1.512" cy="3.744" stroke="#F7BD13" cx="47.232" gorn="0.1.32.18" fill="none" id="connector9pad"/>
 <path xmlns="http://www.w3.org/2000/svg" stroke-width="0" d="m47.232,0a1.872,1.872,0,0,1,1.872,1.872l0,3.744a1.872,1.872,0,0,1,-1.872,1.872l0,0a1.872,1.872,0,0,1,-1.872,-1.872l0,-3.744a1.872,1.872,0,0,1,1.872,-1.872l0,0zM46.08,3.744a1.152,1.152,0,1,0,2.304,0,1.152,1.152,0,1,0,-2.304,0z" stroke="none" fill="#F7BD13"/>
 <circle xmlns="http://www.w3.org/2000/svg" stroke-width="0.72" connectorname="11" r="1.512" cy="3.744" stroke="#F7BD13" cx="40.032" gorn="0.1.32.20" fill="none" id="connector10pad"/>
 <path xmlns="http://www.w3.org/2000/svg" stroke-width="0" d="m40.032,0a1.872,1.872,0,0,1,1.872,1.872l0,3.744a1.872,1.872,0,0,1,-1.872,1.872l0,0a1.872,1.872,0,0,1,-1.872,-1.872l0,-3.744a1.872,1.872,0,0,1,1.872,-1.872l0,0zM38.88,3.744a1.152,1.152,0,1,0,2.304,0,1.152,1.152,0,1,0,-2.304,0z" stroke="none" fill="#F7BD13"/>
 <circle xmlns="http://www.w3.org/2000/svg" stroke-width="0.72" connectorname="12" r="1.512" cy="3.744" stroke="#F7BD13" cx="32.832" gorn="0.1.32.22" fill="none" id="connector11pad"/>
 <path xmlns="http://www.w3.org/2000/svg" stroke-width="0" d="m32.832,0a1.872,1.872,0,0,1,1.872,1.872l0,3.744a1.872,1.872,0,0,1,-1.872,1.872l0,0a1.872,1.872,0,0,1,-1.872,-1.872l0,-3.744a1.872,1.872,0,0,1,1.872,-1.872l0,0zM31.68,3.744a1.152,1.152,0,1,0,2.304,0,1.152,1.152,0,1,0,-2.304,0z" stroke="none" fill="#F7BD13"/>
 <circle xmlns="http://www.w3.org/2000/svg" stroke-width="0.72" connectorname="13" r="1.512" cy="3.744" stroke="#F7BD13" cx="25.632" gorn="0.1.32.24" fill="none" id="connector12pad"/>
 <path xmlns="http://www.w3.org/2000/svg" stroke-width="0" d="m25.632,0a1.872,1.872,0,0,1,1.872,1.872l0,3.744a1.872,1.872,0,0,1,-1.872,1.872l0,0a1.872,1.872,0,0,1,-1.872,-1.872l0,-3.744a1.872,1.872,0,0,1,1.872,-1.872l0,0zM24.48,3.744a1.152,1.152,0,1,0,2.304,0,1.152,1.152,0,1,0,-2.304,0z" stroke="none" fill="#F7BD13"/>
 <circle xmlns="http://www.w3.org/2000/svg" stroke-width="0.72" connectorname="14" r="1.512" cy="3.744" stroke="#F7BD13" cx="18.432" gorn="0.1.32.26" fill="none" id="connector13pad"/>
 <path xmlns="http://www.w3.org/2000/svg" stroke-width="0" d="m18.432,0a1.872,1.872,0,0,1,1.872,1.872l0,3.744a1.872,1.872,0,0,1,-1.872,1.872l0,0a1.872,1.872,0,0,1,-1.872,-1.872l0,-3.744a1.872,1.872,0,0,1,1.872,-1.872l0,0zM17.28,3.744a1.152,1.152,0,1,0,2.304,0,1.152,1.152,0,1,0,-2.304,0z" stroke="none" fill="#F7BD13"/>
 <circle xmlns="http://www.w3.org/2000/svg" stroke-width="0.72" connectorname="15" r="1.512" cy="3.744" stroke="#F7BD13" cx="11.232" gorn="0.1.32.28" fill="none" id="connector14pad"/>
 <path xmlns="http://www.w3.org/2000/svg" stroke-width="0" d="m11.232,0a1.872,1.872,0,0,1,1.872,1.872l0,3.744a1.872,1.872,0,0,1,-1.872,1.872l0,0a1.872,1.872,0,0,1,-1.872,-1.872l0,-3.744a1.872,1.872,0,0,1,1.872,-1.872l0,0zM10.08,3.744a1.152,1.152,0,1,0,2.304,0,1.152,1.152,0,1,0,-2.304,0z" stroke="none" fill="#F7BD13"/>
 <circle xmlns="http://www.w3.org/2000/svg" stroke-width="0.72" connectorname="16" r="1.512" cy="3.744" stroke="#F7BD13" cx="4.032" gorn="0.1.32.30" fill="none" id="connector15pad"/>
 <path xmlns="http://www.w3.org/2000/svg" stroke-width="0" d="m4.032,0a1.872,1.872,0,0,1,1.872,1.872l0,3.744a1.872,1.872,0,0,1,-1.872,1.872l0,0a1.872,1.872,0,0,1,-1.872,-1.872l0,-3.744a1.872,1.872,0,0,1,1.872,-1.872l0,0zM2.88,3.744a1.152,1.152,0,1,0,2.304,0,1.152,1.152,0,1,0,-2.304,0z" stroke="none" fill="#F7BD13"/>
</g>
</g></g><g partID='58440'><g transform='translate(63.5536,99.6031)' ><g xmlns="http://www.w3.org/2000/svg" id="copper0">
 <circle xmlns="http://www.w3.org/2000/svg" stroke-width="1.44" r="2.088" cx="5.04" cy="5.04" stroke="rgb(255, 191, 0)" fill="none" id="connector0pin"/>
 <circle xmlns="http://www.w3.org/2000/svg" stroke-width="1.44" r="2.088" cx="5.04" cy="12.24" stroke="rgb(255, 191, 0)" fill="none" id="connector1pin"/>
 <circle xmlns="http://www.w3.org/2000/svg" stroke-width="1.44" r="2.088" cx="5.04" cy="19.44" stroke="rgb(255, 191, 0)" fill="none" id="connector2pin"/>
 <circle xmlns="http://www.w3.org/2000/svg" stroke-width="1.44" r="2.088" cx="5.04" cy="26.64" stroke="rgb(255, 191, 0)" fill="none" id="connector3pin"/>
</g>
</g></g><g partID='77370'><g transform='translate(5.9536,99.6031)' ><g xmlns="http://www.w3.org/2000/svg" id="copper0">
 <circle xmlns="http://www.w3.org/2000/svg" stroke-width="1.44" r="2.088" cx="5.04" cy="5.04" stroke="rgb(255, 191, 0)" fill="none" id="connector0pin"/>
 <circle xmlns="http://www.w3.org/2000/svg" stroke-width="1.44" r="2.088" cx="5.04" cy="12.24" stroke="rgb(255, 191, 0)" fill="none" id="connector1pin"/>
 <circle xmlns="http://www.w3.org/2000/svg" stroke-width="1.44" r="2.088" cx="5.04" cy="19.44" stroke="rgb(255, 191, 0)" fill="none" id="connector2pin"/>
 <circle xmlns="http://www.w3.org/2000/svg" stroke-width="1.44" r="2.088" cx="5.04" cy="26.64" stroke="rgb(255, 191, 0)" fill="none" id="connector3pin"/>
</g>
</g></g><g partID='77190'><line stroke-linecap='round' stroke='#f28a00' x1='61.352' y1='39.823' x2='61.352' y2='32.682' stroke-width='1.728' /></g><g partID='77120'><line stroke-linecap='round' stroke='#f28a00' x1='61.352' y1='32.682' x2='25.3721' y2='32.682' stroke-width='1.728' /></g><g partID='66010'><line stroke-linecap='round' stroke='#f28a00' x1='61.3504' y1='111.744' x2='61.3504' y2='97.3953' stroke-width='1.728' /></g><g partID='64480'><line stroke-linecap='round' stroke='#f28a00' x1='61.3504' y1='97.3959' x2='90.1911' y2='97.5009' stroke-width='1.728' /></g><g partID='64410'><line stroke-linecap='round' stroke='#f28a00' x1='90.1912' y1='97.5007' x2='90.1912' y2='39.823' stroke-width='1.728' /></g><g partID='64340'><line stroke-linecap='round' stroke='#f28a00' x1='90.1912' y1='39.823' x2='61.3523' y2='39.823' stroke-width='1.728' /></g><g partID='64200'><line stroke-linecap='round' stroke='#f28a00' x1='66.4258' y1='111.813' x2='61.3502' y2='111.744' stroke-width='1.728' /></g><g partID='75170'><line stroke-linecap='round' stroke='#f28a00' x1='47.0696' y1='104.641' x2='47.0696' y2='82.9437' stroke-width='1.728' /></g><g partID='74060'><line stroke-linecap='round' stroke='#f28a00' x1='47.0696' y1='126.34' x2='47.0696' y2='104.642' stroke-width='1.728' /></g><g partID='73910'><line stroke-linecap='round' stroke='#f28a00' x1='47.0696' y1='82.9439' x2='75.6984' y2='83.047' stroke-width='1.728' /></g><g partID='73760'><line stroke-linecap='round' stroke='#f28a00' x1='75.6984' y1='83.0471' x2='75.6984' y2='54.35' stroke-width='1.728' /></g><g partID='73610'><line stroke-linecap='round' stroke='#f28a00' x1='75.6984' y1='54.35' x2='70.5451' y2='54.2724' stroke-width='1.728' /></g><g partID='73460'><line stroke-linecap='round' stroke='#f28a00' x1='41.9614' y1='126.272' x2='47.0699' y2='126.34' stroke-width='1.728' /></g><g partID='77970'><line stroke-linecap='round' stroke='#f28a00' x1='37.6256' y1='119.043' x2='13.1616' y2='119.043' stroke-width='1.728' /></g><g partID='78440'><line stroke-linecap='round' stroke='#f28a00' x1='13.1616' y1='126.243' x2='37.6256' y2='126.243' stroke-width='1.728' /></g><g partID='78850'><line stroke-linecap='round' stroke='#f28a00' x1='3.6744' y1='32.682' x2='3.6744' y2='111.783' stroke-width='1.728' /></g><g partID='78740'><line stroke-linecap='round' stroke='#f28a00' x1='3.6744' y1='111.783' x2='8.82575' y2='111.826' stroke-width='1.728' /></g><g partID='78630'><line stroke-linecap='round' stroke='#f28a00' x1='25.3721' y1='32.682' x2='3.6744' y2='32.682' stroke-width='1.728' /></g><g partID='61622'><g transform='translate(34.7536,106.803)' ><g xmlns="http://www.w3.org/2000/svg" id="copper1">
 <g xmlns="http://www.w3.org/2000/svg" id="copper0">
  <circle xmlns="http://www.w3.org/2000/svg" stroke-width="1.44" r="2.088" cx="5.04" cy="5.04" stroke="rgb(255, 191, 0)" fill="none" id="connector0pin"/>
  <circle xmlns="http://www.w3.org/2000/svg" stroke-width="1.44" r="2.088" cx="5.04" cy="12.24" stroke="rgb(255, 191, 0)" fill="none" id="connector1pin"/>
  <circle xmlns="http://www.w3.org/2000/svg" stroke-width="1.44" r="2.088" cx="5.04" cy="19.44" stroke="rgb(255, 191, 0)" fill="none" id="connector2pin"/>
 </g>
</g>
</g></g><g partID='58192'><g transform='translate(14.1616,50.4991)' ><g xmlns="http://www.w3.org/2000/svg" gorn="0.1" id="copper1">
 <circle xmlns="http://www.w3.org/2000/svg" stroke-width="0.72" connectorname="1" r="1.512" cy="25.344" stroke="#F7BD13" cx="4.032" gorn="0.1.0" fill="none" id="connector0pad"/>
 <path xmlns="http://www.w3.org/2000/svg" stroke-width="0" d="m4.032,21.6a1.872,1.872,0,0,1,1.872,1.872l0,3.744a1.872,1.872,0,0,1,-1.872,1.872l0,0a1.872,1.872,0,0,1,-1.872,-1.872l0,-3.744a1.872,1.872,0,0,1,1.872,-1.872l0,0zM2.88,25.344a1.152,1.152,0,1,0,2.304,0,1.152,1.152,0,1,0,-2.304,0z" stroke="none" fill="#F7BD13"/>
 <circle xmlns="http://www.w3.org/2000/svg" stroke-width="0.72" connectorname="2" r="1.512" cy="25.344" stroke="#F7BD13" cx="11.232" gorn="0.1.2" fill="none" id="connector1pad"/>
 <path xmlns="http://www.w3.org/2000/svg" stroke-width="0" d="m11.232,21.6a1.872,1.872,0,0,1,1.872,1.872l0,3.744a1.872,1.872,0,0,1,-1.872,1.872l0,0a1.872,1.872,0,0,1,-1.872,-1.872l0,-3.744a1.872,1.872,0,0,1,1.872,-1.872l0,0zM10.08,25.344a1.152,1.152,0,1,0,2.304,0,1.152,1.152,0,1,0,-2.304,0z" stroke="none" fill="#F7BD13"/>
 <circle xmlns="http://www.w3.org/2000/svg" stroke-width="0.72" connectorname="3" r="1.512" cy="25.344" stroke="#F7BD13" cx="18.432" gorn="0.1.4" fill="none" id="connector2pad"/>
 <path xmlns="http://www.w3.org/2000/svg" stroke-width="0" d="m18.432,21.6a1.872,1.872,0,0,1,1.872,1.872l0,3.744a1.872,1.872,0,0,1,-1.872,1.872l0,0a1.872,1.872,0,0,1,-1.872,-1.872l0,-3.744a1.872,1.872,0,0,1,1.872,-1.872l0,0zM17.28,25.344a1.152,1.152,0,1,0,2.304,0,1.152,1.152,0,1,0,-2.304,0z" stroke="none" fill="#F7BD13"/>
 <circle xmlns="http://www.w3.org/2000/svg" stroke-width="0.72" connectorname="4" r="1.512" cy="25.344" stroke="#F7BD13" cx="25.632" gorn="0.1.6" fill="none" id="connector3pad"/>
 <path xmlns="http://www.w3.org/2000/svg" stroke-width="0" d="m25.632,21.6a1.872,1.872,0,0,1,1.872,1.872l0,3.744a1.872,1.872,0,0,1,-1.872,1.872l0,0a1.872,1.872,0,0,1,-1.872,-1.872l0,-3.744a1.872,1.872,0,0,1,1.872,-1.872l0,0zM24.48,25.344a1.152,1.152,0,1,0,2.304,0,1.152,1.152,0,1,0,-2.304,0z" stroke="none" fill="#F7BD13"/>
 <circle xmlns="http://www.w3.org/2000/svg" stroke-width="0.72" connectorname="5" r="1.512" cy="25.344" stroke="#F7BD13" cx="32.832" gorn="0.1.8" fill="none" id="connector4pad"/>
 <path xmlns="http://www.w3.org/2000/svg" stroke-width="0" d="m32.832,21.6a1.872,1.872,0,0,1,1.872,1.872l0,3.744a1.872,1.872,0,0,1,-1.872,1.872l0,0a1.872,1.872,0,0,1,-1.872,-1.872l0,-3.744a1.872,1.872,0,0,1,1.872,-1.872l0,0zM31.68,25.344a1.152,1.152,0,1,0,2.304,0,1.152,1.152,0,1,0,-2.304,0z" stroke="none" fill="#F7BD13"/>
 <circle xmlns="http://www.w3.org/2000/svg" stroke-width="0.72" connectorname="6" r="1.512" cy="25.344" stroke="#F7BD13" cx="40.032" gorn="0.1.10" fill="none" id="connector5pad"/>
 <path xmlns="http://www.w3.org/2000/svg" stroke-width="0" d="m40.032,21.6a1.872,1.872,0,0,1,1.872,1.872l0,3.744a1.872,1.872,0,0,1,-1.872,1.872l0,0a1.872,1.872,0,0,1,-1.872,-1.872l0,-3.744a1.872,1.872,0,0,1,1.872,-1.872l0,0zM38.88,25.344a1.152,1.152,0,1,0,2.304,0,1.152,1.152,0,1,0,-2.304,0z" stroke="none" fill="#F7BD13"/>
 <circle xmlns="http://www.w3.org/2000/svg" stroke-width="0.72" connectorname="7" r="1.512" cy="25.344" stroke="#F7BD13" cx="47.232" gorn="0.1.12" fill="none" id="connector6pad"/>
 <path xmlns="http://www.w3.org/2000/svg" stroke-width="0" d="m47.232,21.6a1.872,1.872,0,0,1,1.872,1.872l0,3.744a1.872,1.872,0,0,1,-1.872,1.872l0,0a1.872,1.872,0,0,1,-1.872,-1.872l0,-3.744a1.872,1.872,0,0,1,1.872,-1.872l0,0zM46.08,25.344a1.152,1.152,0,1,0,2.304,0,1.152,1.152,0,1,0,-2.304,0z" stroke="none" fill="#F7BD13"/>
 <circle xmlns="http://www.w3.org/2000/svg" stroke-width="0.72" connectorname="8" r="1.512" cy="25.344" stroke="#F7BD13" cx="54.432" gorn="0.1.14" fill="none" id="connector7pad"/>
 <path xmlns="http://www.w3.org/2000/svg" stroke-width="0" d="m54.432,21.6a1.872,1.872,0,0,1,1.872,1.872l0,3.744a1.872,1.872,0,0,1,-1.872,1.872l0,0a1.872,1.872,0,0,1,-1.872,-1.872l0,-3.744a1.872,1.872,0,0,1,1.872,-1.872l0,0zM53.28,25.344a1.152,1.152,0,1,0,2.304,0,1.152,1.152,0,1,0,-2.304,0z" stroke="none" fill="#F7BD13"/>
 <circle xmlns="http://www.w3.org/2000/svg" stroke-width="0.72" connectorname="9" r="1.512" cy="3.744" stroke="#F7BD13" cx="54.432" gorn="0.1.16" fill="none" id="connector8pad"/>
 <path xmlns="http://www.w3.org/2000/svg" stroke-width="0" d="m54.432,0a1.872,1.872,0,0,1,1.872,1.872l0,3.744a1.872,1.872,0,0,1,-1.872,1.872l0,0a1.872,1.872,0,0,1,-1.872,-1.872l0,-3.744a1.872,1.872,0,0,1,1.872,-1.872l0,0zM53.28,3.744a1.152,1.152,0,1,0,2.304,0,1.152,1.152,0,1,0,-2.304,0z" stroke="none" fill="#F7BD13"/>
 <circle xmlns="http://www.w3.org/2000/svg" stroke-width="0.72" connectorname="10" r="1.512" cy="3.744" stroke="#F7BD13" cx="47.232" gorn="0.1.18" fill="none" id="connector9pad"/>
 <path xmlns="http://www.w3.org/2000/svg" stroke-width="0" d="m47.232,0a1.872,1.872,0,0,1,1.872,1.872l0,3.744a1.872,1.872,0,0,1,-1.872,1.872l0,0a1.872,1.872,0,0,1,-1.872,-1.872l0,-3.744a1.872,1.872,0,0,1,1.872,-1.872l0,0zM46.08,3.744a1.152,1.152,0,1,0,2.304,0,1.152,1.152,0,1,0,-2.304,0z" stroke="none" fill="#F7BD13"/>
 <circle xmlns="http://www.w3.org/2000/svg" stroke-width="0.72" connectorname="11" r="1.512" cy="3.744" stroke="#F7BD13" cx="40.032" gorn="0.1.20" fill="none" id="connector10pad"/>
 <path xmlns="http://www.w3.org/2000/svg" stroke-width="0" d="m40.032,0a1.872,1.872,0,0,1,1.872,1.872l0,3.744a1.872,1.872,0,0,1,-1.872,1.872l0,0a1.872,1.872,0,0,1,-1.872,-1.872l0,-3.744a1.872,1.872,0,0,1,1.872,-1.872l0,0zM38.88,3.744a1.152,1.152,0,1,0,2.304,0,1.152,1.152,0,1,0,-2.304,0z" stroke="none" fill="#F7BD13"/>
 <circle xmlns="http://www.w3.org/2000/svg" stroke-width="0.72" connectorname="12" r="1.512" cy="3.744" stroke="#F7BD13" cx="32.832" gorn="0.1.22" fill="none" id="connector11pad"/>
 <path xmlns="http://www.w3.org/2000/svg" stroke-width="0" d="m32.832,0a1.872,1.872,0,0,1,1.872,1.872l0,3.744a1.872,1.872,0,0,1,-1.872,1.872l0,0a1.872,1.872,0,0,1,-1.872,-1.872l0,-3.744a1.872,1.872,0,0,1,1.872,-1.872l0,0zM31.68,3.744a1.152,1.152,0,1,0,2.304,0,1.152,1.152,0,1,0,-2.304,0z" stroke="none" fill="#F7BD13"/>
 <circle xmlns="http://www.w3.org/2000/svg" stroke-width="0.72" connectorname="13" r="1.512" cy="3.744" stroke="#F7BD13" cx="25.632" gorn="0.1.24" fill="none" id="connector12pad"/>
 <path xmlns="http://www.w3.org/2000/svg" stroke-width="0" d="m25.632,0a1.872,1.872,0,0,1,1.872,1.872l0,3.744a1.872,1.872,0,0,1,-1.872,1.872l0,0a1.872,1.872,0,0,1,-1.872,-1.872l0,-3.744a1.872,1.872,0,0,1,1.872,-1.872l0,0zM24.48,3.744a1.152,1.152,0,1,0,2.304,0,1.152,1.152,0,1,0,-2.304,0z" stroke="none" fill="#F7BD13"/>
 <circle xmlns="http://www.w3.org/2000/svg" stroke-width="0.72" connectorname="14" r="1.512" cy="3.744" stroke="#F7BD13" cx="18.432" gorn="0.1.26" fill="none" id="connector13pad"/>
 <path xmlns="http://www.w3.org/2000/svg" stroke-width="0" d="m18.432,0a1.872,1.872,0,0,1,1.872,1.872l0,3.744a1.872,1.872,0,0,1,-1.872,1.872l0,0a1.872,1.872,0,0,1,-1.872,-1.872l0,-3.744a1.872,1.872,0,0,1,1.872,-1.872l0,0zM17.28,3.744a1.152,1.152,0,1,0,2.304,0,1.152,1.152,0,1,0,-2.304,0z" stroke="none" fill="#F7BD13"/>
 <circle xmlns="http://www.w3.org/2000/svg" stroke-width="0.72" connectorname="15" r="1.512" cy="3.744" stroke="#F7BD13" cx="11.232" gorn="0.1.28" fill="none" id="connector14pad"/>
 <path xmlns="http://www.w3.org/2000/svg" stroke-width="0" d="m11.232,0a1.872,1.872,0,0,1,1.872,1.872l0,3.744a1.872,1.872,0,0,1,-1.872,1.872l0,0a1.872,1.872,0,0,1,-1.872,-1.872l0,-3.744a1.872,1.872,0,0,1,1.872,-1.872l0,0zM10.08,3.744a1.152,1.152,0,1,0,2.304,0,1.152,1.152,0,1,0,-2.304,0z" stroke="none" fill="#F7BD13"/>
 <circle xmlns="http://www.w3.org/2000/svg" stroke-width="0.72" connectorname="16" r="1.512" cy="3.744" stroke="#F7BD13" cx="4.032" gorn="0.1.30" fill="none" id="connector15pad"/>
 <path xmlns="http://www.w3.org/2000/svg" stroke-width="0" d="m4.032,0a1.872,1.872,0,0,1,1.872,1.872l0,3.744a1.872,1.872,0,0,1,-1.872,1.872l0,0a1.872,1.872,0,0,1,-1.872,-1.872l0,-3.744a1.872,1.872,0,0,1,1.872,-1.872l0,0zM2.88,3.744a1.152,1.152,0,1,0,2.304,0,1.152,1.152,0,1,0,-2.304,0z" stroke="none" fill="#F7BD13"/>
 <g xmlns="http://www.w3.org/2000/svg" gorn="0.1.32" id="copper0">
  <circle xmlns="http://www.w3.org/2000/svg" stroke-width="0.72" connectorname="1" r="1.512" cy="25.344" stroke="#F7BD13" cx="4.032" gorn="0.1.32.0" fill="none" id="connector0pad"/>
  <path xmlns="http://www.w3.org/2000/svg" stroke-width="0" d="m4.032,21.6a1.872,1.872,0,0,1,1.872,1.872l0,3.744a1.872,1.872,0,0,1,-1.872,1.872l0,0a1.872,1.872,0,0,1,-1.872,-1.872l0,-3.744a1.872,1.872,0,0,1,1.872,-1.872l0,0zM2.88,25.344a1.152,1.152,0,1,0,2.304,0,1.152,1.152,0,1,0,-2.304,0z" stroke="none" fill="#F7BD13"/>
  <circle xmlns="http://www.w3.org/2000/svg" stroke-width="0.72" connectorname="2" r="1.512" cy="25.344" stroke="#F7BD13" cx="11.232" gorn="0.1.32.2" fill="none" id="connector1pad"/>
  <path xmlns="http://www.w3.org/2000/svg" stroke-width="0" d="m11.232,21.6a1.872,1.872,0,0,1,1.872,1.872l0,3.744a1.872,1.872,0,0,1,-1.872,1.872l0,0a1.872,1.872,0,0,1,-1.872,-1.872l0,-3.744a1.872,1.872,0,0,1,1.872,-1.872l0,0zM10.08,25.344a1.152,1.152,0,1,0,2.304,0,1.152,1.152,0,1,0,-2.304,0z" stroke="none" fill="#F7BD13"/>
  <circle xmlns="http://www.w3.org/2000/svg" stroke-width="0.72" connectorname="3" r="1.512" cy="25.344" stroke="#F7BD13" cx="18.432" gorn="0.1.32.4" fill="none" id="connector2pad"/>
  <path xmlns="http://www.w3.org/2000/svg" stroke-width="0" d="m18.432,21.6a1.872,1.872,0,0,1,1.872,1.872l0,3.744a1.872,1.872,0,0,1,-1.872,1.872l0,0a1.872,1.872,0,0,1,-1.872,-1.872l0,-3.744a1.872,1.872,0,0,1,1.872,-1.872l0,0zM17.28,25.344a1.152,1.152,0,1,0,2.304,0,1.152,1.152,0,1,0,-2.304,0z" stroke="none" fill="#F7BD13"/>
  <circle xmlns="http://www.w3.org/2000/svg" stroke-width="0.72" connectorname="4" r="1.512" cy="25.344" stroke="#F7BD13" cx="25.632" gorn="0.1.32.6" fill="none" id="connector3pad"/>
  <path xmlns="http://www.w3.org/2000/svg" stroke-width="0" d="m25.632,21.6a1.872,1.872,0,0,1,1.872,1.872l0,3.744a1.872,1.872,0,0,1,-1.872,1.872l0,0a1.872,1.872,0,0,1,-1.872,-1.872l0,-3.744a1.872,1.872,0,0,1,1.872,-1.872l0,0zM24.48,25.344a1.152,1.152,0,1,0,2.304,0,1.152,1.152,0,1,0,-2.304,0z" stroke="none" fill="#F7BD13"/>
  <circle xmlns="http://www.w3.org/2000/svg" stroke-width="0.72" connectorname="5" r="1.512" cy="25.344" stroke="#F7BD13" cx="32.832" gorn="0.1.32.8" fill="none" id="connector4pad"/>
  <path xmlns="http://www.w3.org/2000/svg" stroke-width="0" d="m32.832,21.6a1.872,1.872,0,0,1,1.872,1.872l0,3.744a1.872,1.872,0,0,1,-1.872,1.872l0,0a1.872,1.872,0,0,1,-1.872,-1.872l0,-3.744a1.872,1.872,0,0,1,1.872,-1.872l0,0zM31.68,25.344a1.152,1.152,0,1,0,2.304,0,1.152,1.152,0,1,0,-2.304,0z" stroke="none" fill="#F7BD13"/>
  <circle xmlns="http://www.w3.org/2000/svg" stroke-width="0.72" connectorname="6" r="1.512" cy="25.344" stroke="#F7BD13" cx="40.032" gorn="0.1.32.10" fill="none" id="connector5pad"/>
  <path xmlns="http://www.w3.org/2000/svg" stroke-width="0" d="m40.032,21.6a1.872,1.872,0,0,1,1.872,1.872l0,3.744a1.872,1.872,0,0,1,-1.872,1.872l0,0a1.872,1.872,0,0,1,-1.872,-1.872l0,-3.744a1.872,1.872,0,0,1,1.872,-1.872l0,0zM38.88,25.344a1.152,1.152,0,1,0,2.304,0,1.152,1.152,0,1,0,-2.304,0z" stroke="none" fill="#F7BD13"/>
  <circle xmlns="http://www.w3.org/2000/svg" stroke-width="0.72" connectorname="7" r="1.512" cy="25.344" stroke="#F7BD13" cx="47.232" gorn="0.1.32.12" fill="none" id="connector6pad"/>
  <path xmlns="http://www.w3.org/2000/svg" stroke-width="0" d="m47.232,21.6a1.872,1.872,0,0,1,1.872,1.872l0,3.744a1.872,1.872,0,0,1,-1.872,1.872l0,0a1.872,1.872,0,0,1,-1.872,-1.872l0,-3.744a1.872,1.872,0,0,1,1.872,-1.872l0,0zM46.08,25.344a1.152,1.152,0,1,0,2.304,0,1.152,1.152,0,1,0,-2.304,0z" stroke="none" fill="#F7BD13"/>
  <circle xmlns="http://www.w3.org/2000/svg" stroke-width="0.72" connectorname="8" r="1.512" cy="25.344" stroke="#F7BD13" cx="54.432" gorn="0.1.32.14" fill="none" id="connector7pad"/>
  <path xmlns="http://www.w3.org/2000/svg" stroke-width="0" d="m54.432,21.6a1.872,1.872,0,0,1,1.872,1.872l0,3.744a1.872,1.872,0,0,1,-1.872,1.872l0,0a1.872,1.872,0,0,1,-1.872,-1.872l0,-3.744a1.872,1.872,0,0,1,1.872,-1.872l0,0zM53.28,25.344a1.152,1.152,0,1,0,2.304,0,1.152,1.152,0,1,0,-2.304,0z" stroke="none" fill="#F7BD13"/>
  <circle xmlns="http://www.w3.org/2000/svg" stroke-width="0.72" connectorname="9" r="1.512" cy="3.744" stroke="#F7BD13" cx="54.432" gorn="0.1.32.16" fill="none" id="connector8pad"/>
  <path xmlns="http://www.w3.org/2000/svg" stroke-width="0" d="m54.432,0a1.872,1.872,0,0,1,1.872,1.872l0,3.744a1.872,1.872,0,0,1,-1.872,1.872l0,0a1.872,1.872,0,0,1,-1.872,-1.872l0,-3.744a1.872,1.872,0,0,1,1.872,-1.872l0,0zM53.28,3.744a1.152,1.152,0,1,0,2.304,0,1.152,1.152,0,1,0,-2.304,0z" stroke="none" fill="#F7BD13"/>
  <circle xmlns="http://www.w3.org/2000/svg" stroke-width="0.72" connectorname="10" r="1.512" cy="3.744" stroke="#F7BD13" cx="47.232" gorn="0.1.32.18" fill="none" id="connector9pad"/>
  <path xmlns="http://www.w3.org/2000/svg" stroke-width="0" d="m47.232,0a1.872,1.872,0,0,1,1.872,1.872l0,3.744a1.872,1.872,0,0,1,-1.872,1.872l0,0a1.872,1.872,0,0,1,-1.872,-1.872l0,-3.744a1.872,1.872,0,0,1,1.872,-1.872l0,0zM46.08,3.744a1.152,1.152,0,1,0,2.304,0,1.152,1.152,0,1,0,-2.304,0z" stroke="none" fill="#F7BD13"/>
  <circle xmlns="http://www.w3.org/2000/svg" stroke-width="0.72" connectorname="11" r="1.512" cy="3.744" stroke="#F7BD13" cx="40.032" gorn="0.1.32.20" fill="none" id="connector10pad"/>
  <path xmlns="http://www.w3.org/2000/svg" stroke-width="0" d="m40.032,0a1.872,1.872,0,0,1,1.872,1.872l0,3.744a1.872,1.872,0,0,1,-1.872,1.872l0,0a1.872,1.872,0,0,1,-1.872,-1.872l0,-3.744a1.872,1.872,0,0,1,1.872,-1.872l0,0zM38.88,3.744a1.152,1.152,0,1,0,2.304,0,1.152,1.152,0,1,0,-2.304,0z" stroke="none" fill="#F7BD13"/>
  <circle xmlns="http://www.w3.org/2000/svg" stroke-width="0.72" connectorname="12" r="1.512" cy="3.744" stroke="#F7BD13" cx="32.832" gorn="0.1.32.22" fill="none" id="connector11pad"/>
  <path xmlns="http://www.w3.org/2000/svg" stroke-width="0" d="m32.832,0a1.872,1.872,0,0,1,1.872,1.872l0,3.744a1.872,1.872,0,0,1,-1.872,1.872l0,0a1.872,1.872,0,0,1,-1.872,-1.872l0,-3.744a1.872,1.872,0,0,1,1.872,-1.872l0,0zM31.68,3.744a1.152,1.152,0,1,0,2.304,0,1.152,1.152,0,1,0,-2.304,0z" stroke="none" fill="#F7BD13"/>
  <circle xmlns="http://www.w3.org/2000/svg" stroke-width="0.72" connectorname="13" r="1.512" cy="3.744" stroke="#F7BD13" cx="25.632" gorn="0.1.32.24" fill="none" id="connector12pad"/>
  <path xmlns="http://www.w3.org/2000/svg" stroke-width="0" d="m25.632,0a1.872,1.872,0,0,1,1.872,1.872l0,3.744a1.872,1.872,0,0,1,-1.872,1.872l0,0a1.872,1.872,0,0,1,-1.872,-1.872l0,-3.744a1.872,1.872,0,0,1,1.872,-1.872l0,0zM24.48,3.744a1.152,1.152,0,1,0,2.304,0,1.152,1.152,0,1,0,-2.304,0z" stroke="none" fill="#F7BD13"/>
  <circle xmlns="http://www.w3.org/2000/svg" stroke-width="0.72" connectorname="14" r="1.512" cy="3.744" stroke="#F7BD13" cx="18.432" gorn="0.1.32.26" fill="none" id="connector13pad"/>
  <path xmlns="http://www.w3.org/2000/svg" stroke-width="0" d="m18.432,0a1.872,1.872,0,0,1,1.872,1.872l0,3.744a1.872,1.872,0,0,1,-1.872,1.872l0,0a1.872,1.872,0,0,1,-1.872,-1.872l0,-3.744a1.872,1.872,0,0,1,1.872,-1.872l0,0zM17.28,3.744a1.152,1.152,0,1,0,2.304,0,1.152,1.152,0,1,0,-2.304,0z" stroke="none" fill="#F7BD13"/>
  <circle xmlns="http://www.w3.org/2000/svg" stroke-width="0.72" connectorname="15" r="1.512" cy="3.744" stroke="#F7BD13" cx="11.232" gorn="0.1.32.28" fill="none" id="connector14pad"/>
  <path xmlns="http://www.w3.org/2000/svg" stroke-width="0" d="m11.232,0a1.872,1.872,0,0,1,1.872,1.872l0,3.744a1.872,1.872,0,0,1,-1.872,1.872l0,0a1.872,1.872,0,0,1,-1.872,-1.872l0,-3.744a1.872,1.872,0,0,1,1.872,-1.872l0,0zM10.08,3.744a1.152,1.152,0,1,0,2.304,0,1.152,1.152,0,1,0,-2.304,0z" stroke="none" fill="#F7BD13"/>
  <circle xmlns="http://www.w3.org/2000/svg" stroke-width="0.72" connectorname="16" r="1.512" cy="3.744" stroke="#F7BD13" cx="4.032" gorn="0.1.32.30" fill="none" id="connector15pad"/>
  <path xmlns="http://www.w3.org/2000/svg" stroke-width="0" d="m4.032,0a1.872,1.872,0,0,1,1.872,1.872l0,3.744a1.872,1.872,0,0,1,-1.872,1.872l0,0a1.872,1.872,0,0,1,-1.872,-1.872l0,-3.744a1.872,1.872,0,0,1,1.872,-1.872l0,0zM2.88,3.744a1.152,1.152,0,1,0,2.304,0,1.152,1.152,0,1,0,-2.304,0z" stroke="none" fill="#F7BD13"/>
 </g>
</g>
</g></g><g partID='58442'><g transform='translate(63.5536,99.6031)' ><g xmlns="http://www.w3.org/2000/svg" id="copper1">
 <g xmlns="http://www.w3.org/2000/svg" id="copper0">
  <circle xmlns="http://www.w3.org/2000/svg" stroke-width="1.44" r="2.088" cx="5.04" cy="5.04" stroke="rgb(255, 191, 0)" fill="none" id="connector0pin"/>
  <circle xmlns="http://www.w3.org/2000/svg" stroke-width="1.44" r="2.088" cx="5.04" cy="12.24" stroke="rgb(255, 191, 0)" fill="none" id="connector1pin"/>
  <circle xmlns="http://www.w3.org/2000/svg" stroke-width="1.44" r="2.088" cx="5.04" cy="19.44" stroke="rgb(255, 191, 0)" fill="none" id="connector2pin"/>
  <circle xmlns="http://www.w3.org/2000/svg" stroke-width="1.44" r="2.088" cx="5.04" cy="26.64" stroke="rgb(255, 191, 0)" fill="none" id="connector3pin"/>
 </g>
</g>
</g></g><g partID='77372'><g transform='translate(5.9536,99.6031)' ><g xmlns="http://www.w3.org/2000/svg" id="copper1">
 <g xmlns="http://www.w3.org/2000/svg" id="copper0">
  <circle xmlns="http://www.w3.org/2000/svg" stroke-width="1.44" r="2.088" cx="5.04" cy="5.04" stroke="rgb(255, 191, 0)" fill="none" id="connector0pin"/>
  <circle xmlns="http://www.w3.org/2000/svg" stroke-width="1.44" r="2.088" cx="5.04" cy="12.24" stroke="rgb(255, 191, 0)" fill="none" id="connector1pin"/>
  <circle xmlns="http://www.w3.org/2000/svg" stroke-width="1.44" r="2.088" cx="5.04" cy="19.44" stroke="rgb(255, 191, 0)" fill="none" id="connector2pin"/>
  <circle xmlns="http://www.w3.org/2000/svg" stroke-width="1.44" r="2.088" cx="5.04" cy="26.64" stroke="rgb(255, 191, 0)" fill="none" id="connector3pin"/>
 </g>
</g>
</g></g><g partID='59220'><line stroke-linecap='round' stroke='#f2c600' x1='23.4416' y1='54.2431' x2='20.1456' y2='54.2431' stroke-width='1.728' /></g><g partID='75590'><line stroke-linecap='round' stroke='#f2c600' x1='39.9288' y1='82.9439' x2='39.8037' y2='109.675' stroke-width='1.728' /></g><g partID='71090'><line stroke-linecap='round' stroke='#f2c600' x1='18.2312' y1='82.9439' x2='39.929' y2='82.9439' stroke-width='1.728' /></g><g partID='61640'><line stroke-linecap='round' stroke='#f2c600' x1='18.2039' y1='77.7951' x2='18.2311' y2='82.9439' stroke-width='1.728' /></g><g partID='63190'><line stroke-linecap='round' stroke='#f2c600' x1='41.9616' y1='126.243' x2='66.4256' y2='126.243' stroke-width='1.728' /></g><g partID='79760'><line stroke-linecap='round' stroke='#f2c600' x1='75.9088' y1='104.641' x2='70.7616' y2='104.642' stroke-width='1.728' /></g><g partID='79650'><line stroke-linecap='round' stroke='#f2c600' x1='75.9088' y1='133.481' x2='75.9088' y2='104.642' stroke-width='1.728' /></g><g partID='79540'><line stroke-linecap='round' stroke='#f2c600' x1='18.2312' y1='133.481' x2='75.9089' y2='133.481' stroke-width='1.728' /></g><g partID='79430'><line stroke-linecap='round' stroke='#f2c600' x1='18.2312' y1='104.641' x2='18.2312' y2='133.48' stroke-width='1.728' /></g><g partID='79320'><line stroke-linecap='round' stroke='#f2c600' x1='13.1616' y1='104.643' x2='18.2311' y2='104.642' stroke-width='1.728' /></g><g partID='57661'><g xmlns="http://www.w3.org/2000/svg" id="silkscreen">
 <rect xmlns="http://www.w3.org/2000/svg" x="0.288" stroke-width="0.576" height="136.467" width="165.069" y="0.288" stroke="#000000" fill="none"/>
</g>
</g><g partID='61621'><g transform='translate(34.7536,106.803)' ><g xmlns="http://www.w3.org/2000/svg" id="silkscreen">
 <line xmlns="http://www.w3.org/2000/svg" stroke-width="0.72" y1="1.44" x1="1.44" y2="23.04" x2="1.44" stroke="white"/>
 <line xmlns="http://www.w3.org/2000/svg" stroke-width="0.72" y1="23.04" x1="1.44" y2="23.04" x2="8.64" stroke="white"/>
 <line xmlns="http://www.w3.org/2000/svg" stroke-width="0.72" y1="23.04" x1="8.64" y2="1.44" x2="8.64" stroke="white"/>
 <line xmlns="http://www.w3.org/2000/svg" stroke-width="0.72" y1="1.44" x1="8.64" y2="1.44" x2="1.44" stroke="white"/>
 <line xmlns="http://www.w3.org/2000/svg" stroke-width="0.36" y1="3.96" x1="1.44" y2="1.44" x2="3.96" stroke="white"/>
 <!-- 120 -->
</g>
</g></g><g partID='58191'><g transform='translate(14.1616,50.4991)' ><g xmlns="http://www.w3.org/2000/svg" gorn="0.2" id="silkscreen">
 <line xmlns="http://www.w3.org/2000/svg" class="other" stroke-width="0.864" y1="6.264" x1="58.032" y2="6.264" x2="0.432" stroke="#f0f0f0" stroke-linecap="round"/>
 <line xmlns="http://www.w3.org/2000/svg" class="other" stroke-width="0.864" y1="22.824" x1="0.432" y2="22.824" x2="58.032" stroke="#f0f0f0" stroke-linecap="round"/>
 <line xmlns="http://www.w3.org/2000/svg" class="other" stroke-width="0.864" y1="6.264" x1="58.032" y2="22.824" x2="58.032" stroke="#f0f0f0" stroke-linecap="round"/>
 <line xmlns="http://www.w3.org/2000/svg" class="other" stroke-width="0.864" y1="6.264" x1="0.432" y2="11.664" x2="0.432" stroke="#f0f0f0" stroke-linecap="round"/>
 <line xmlns="http://www.w3.org/2000/svg" class="other" stroke-width="0.864" y1="22.824" x1="0.432" y2="17.424" x2="0.432" stroke="#f0f0f0" stroke-linecap="round"/>
 <path xmlns="http://www.w3.org/2000/svg" class="other" stroke-width="0.864" d="M0.432,17.424A2.88,2.88,0,1,0,0.432,11.664" stroke="#f0f0f0" fill="none"/>
</g>
</g></g><g partID='58441'><g transform='translate(63.5536,99.6031)' ><g xmlns="http://www.w3.org/2000/svg" id="silkscreen">
 <line xmlns="http://www.w3.org/2000/svg" stroke-width="0.72" y1="1.44" x1="1.44" y2="30.24" x2="1.44" stroke="white"/>
 <line xmlns="http://www.w3.org/2000/svg" stroke-width="0.72" y1="30.24" x1="1.44" y2="30.24" x2="8.64" stroke="white"/>
 <line xmlns="http://www.w3.org/2000/svg" stroke-width="0.72" y1="30.24" x1="8.64" y2="1.44" x2="8.64" stroke="white"/>
 <line xmlns="http://www.w3.org/2000/svg" stroke-width="0.72" y1="1.44" x1="8.64" y2="1.44" x2="1.44" stroke="white"/>
 <line xmlns="http://www.w3.org/2000/svg" stroke-width="0.36" y1="3.96" x1="1.44" y2="1.44" x2="3.96" stroke="white"/>
 <!-- 120 -->
</g>
</g></g><g partID='77371'><g transform='translate(5.9536,99.6031)' ><g xmlns="http://www.w3.org/2000/svg" id="silkscreen">
 <line xmlns="http://www.w3.org/2000/svg" stroke-width="0.72" y1="1.44" x1="1.44" y2="30.24" x2="1.44" stroke="white"/>
 <line xmlns="http://www.w3.org/2000/svg" stroke-width="0.72" y1="30.24" x1="1.44" y2="30.24" x2="8.64" stroke="white"/>
 <line xmlns="http://www.w3.org/2000/svg" stroke-width="0.72" y1="30.24" x1="8.64" y2="1.44" x2="8.64" stroke="white"/>
 <line xmlns="http://www.w3.org/2000/svg" stroke-width="0.72" y1="1.44" x1="8.64" y2="1.44" x2="1.44" stroke="white"/>
 <line xmlns="http://www.w3.org/2000/svg" stroke-width="0.36" y1="3.96" x1="1.44" y2="1.44" x2="3.96" stroke="white"/>
 <!-- 120 -->
</g>
</g></g><g partID='58190' id='partLabel'><g transform='translate(72.6256,44.8991)' ><g font-size='5' font-style='normal' font-weight='normal' fill='#000000' font-family="'OCRA'" id='silkscreenLabel' fill-opacity='1' stroke='none' ><text x='0' y='3.75'>MCP3008</text></g></g></g><g partID='61620' id='partLabel'><g transform='translate(44.8336,101.203)' ><g font-size='5' font-style='normal' font-weight='normal' fill='#000000' font-family="'OCRA'" id='silkscreenLabel' fill-opacity='1' stroke='none' ><text x='0' y='3.75'>SOIL</text></g></g></g><g partID='77370' id='partLabel'><g transform='translate(16.0336,94.0031)' ><g font-size='5' font-style='normal' font-weight='normal' fill='#000000' font-family="'OCRA'" id='silkscreenLabel' fill-opacity='1' stroke='none' ><text x='0' y='3.75'>LCD</text></g></g></g><g partID='58440' id='partLabel'><g transform='translate(73.6336,94.0031)' ><g font-size='5' font-style='normal' font-weight='normal' fill='#000000' font-family="'OCRA'" id='silkscreenLabel' fill-opacity='1' stroke='none' ><text x='0' y='3.75'>SHT-21</text></g></g></g></svg>